<svg xmlns="http://www.w3.org/2000/svg" width="248.87" height="179.41" viewBox="0 0 248.87 179.41"><defs><style>.a{fill:#fefefe;}.b{fill:#65ae23;}.c{fill:#0e71b3;}.d{fill:#0f71b4;}.e{fill:#65af24;}.f{fill:#66af24;}.g{fill:#a3a5a6;}.h{fill:#a2a4a5;}.i{fill:#a4a5a6;}.j{fill:#a4a6a7;}.k{fill:#f9fbfc;}.l{fill:#f7fafc;}.m{fill:#fcfcfc;}.n{fill:#fdfdfd;}.o{fill:#fbfbfb;}</style></defs><path class="a" d="M0,179.41V0H248.87V179.41Zm110.12-92.6c0,2.52,0,5,0,7.38a9.81,9.81,0,0,0,.43,2.58,7.57,7.57,0,0,0,7.2,5.79h51a6.6,6.6,0,0,0,4.09-1.34,9,9,0,0,0,3.53-7.57q0-28.38,0-56.75a11.33,11.33,0,0,0-.3-2.6,7.69,7.69,0,0,0-8-6.31H117.92a7.1,7.1,0,0,0-1.73.16,7.72,7.72,0,0,0-5.76,6.17c-.67,2.74-.24,5.57-.3,8.36,0,0,.06.07.11.13h39.67a5.74,5.74,0,0,1,4.25,1.79,7.59,7.59,0,0,1,2.09,5.66q0,14.2,0,28.41c0,.6,0,1.21-.06,1.82a6.46,6.46,0,0,1-6.73,6.33H110.12Zm30-71.4c-.08-3,.08-5.87-.28-8.7a7.53,7.53,0,0,0-7.72-6.6c-17,.08-33.93,0-50.89,0a6.86,6.86,0,0,0-4.93,2,8.66,8.66,0,0,0-2.5,6.56q0,28.2,0,56.39a12.87,12.87,0,0,0,.46,3.38A7.8,7.8,0,0,0,82,74.26c16.79-.09,33.58,0,50.37,0a7.38,7.38,0,0,0,1.24-.08,7.62,7.62,0,0,0,6.16-6.42,78.87,78.87,0,0,0,.3-8.15s-.06-.08-.13-.17H100.33a5.73,5.73,0,0,1-3.44-1,7.32,7.32,0,0,1-3-6.33V23A11.94,11.94,0,0,1,94,21.08a6.54,6.54,0,0,1,6.5-5.7c12.85.07,25.69,0,38.53,0Zm84.14,108.3,5.12,19.64c1.56,0,3,0,4.39,0a.83.83,0,0,0,.53-.51q2.64-8.52,5.25-17.06c.25-.82.47-1.65.71-2.51.23,6.86.47,13.66.7,20.49h5.86c-.47-8.78-.93-17.5-1.4-26.25-2.56,0-5,0-7.43,0a.7.7,0,0,0-.52.43q-2.31,7.64-4.56,15.29c-.23.76-.4,1.55-.64,2.48a5,5,0,0,1-.18-.59c-1.07-5.8-2.88-11.39-4.51-17a.68.68,0,0,0-.8-.6c-1.61,0-3.22,0-4.83,0h-2.5c-.56,8.81-1.12,17.53-1.68,26.25h5.57C223.66,137,224,130.25,224.27,123.71ZM100.5,117.49c-2.57,0-5,0-7.48,0-.17,0-.44.28-.5.48-1.33,4.31-2.66,8.63-4,13-.45,1.51-.79,3.06-1.22,4.74-.09-.27-.15-.38-.17-.49-1.07-5.85-2.9-11.49-4.54-17.19-.13-.45-.36-.53-.78-.53-2.26,0-4.53,0-6.79,0-.17,0-.33,0-.55.05-.56,8.75-1.11,17.47-1.67,26.21h5.56c.31-6.79.63-13.55.92-20,1.67,6.4,3.4,13,5.13,19.65,1.5,0,2.81,0,4.13,0,.52,0,.71-.19.85-.65q2.86-9.53,5.76-19a1.8,1.8,0,0,1,.15-.31q.34,10.15.69,20.38h5.86C101.43,135,101,126.26,100.5,117.49ZM47.39,143.76V117.54h-5.9v10H31.73v-10H25.88v26.22h5.88v-10.9H41.5v10.91Zm115.74-12.4.72-.35a7,7,0,0,0,1.79-11.36,9.21,9.21,0,0,0-4.69-2,39.54,39.54,0,0,0-9.54-.07c-.84.06-1.68.19-2.51.28v25.9h5.91V133.5c.94,0,1.81-.06,2.68,0a3,3,0,0,1,2.65,2c.28.7.49,1.43.7,2.15.53,1.87,1,3.74,1.59,5.6.06.22.36.51.55.51,1.89,0,3.79,0,5.66,0-.71-2.67-1.38-5.3-2.12-7.92A6.48,6.48,0,0,0,163.13,131.36Zm51.77,12.43c-.05-.23-.07-.38-.11-.52q-3.94-12.61-7.87-25.25a.67.67,0,0,0-.77-.54c-2.17,0-4.34,0-6.51,0a.81.81,0,0,0-.95.7q-3.78,12.51-7.6,25c-.05.17-.07.35-.12.56h6.09c.07-.24.15-.47.21-.69.5-1.81,1-3.6,1.5-5.41.12-.46.3-.62.79-.61,2.1,0,4.19,0,6.29,0,.49,0,.65.2.78.63q.81,2.81,1.69,5.58c.07.21.34.5.53.51C210.84,143.8,212.84,143.79,214.9,143.79Zm-42.83-26.26v26.21h16.66v-4.85H178V132.7h9.6v-4.89H178v-5.42h10.19v-4.86ZM52.7,143.75H69.39v-4.84H58.69v-6.26h9.56V127.8H58.69v-5.41H68.85v-4.85H52.7Zm69.71-25.31a6.11,6.11,0,0,0-.91-.38,42.88,42.88,0,0,0-5-.92,11.76,11.76,0,0,0-7.23,1.57,7,7,0,0,0-.63,11.82,28.39,28.39,0,0,0,4.3,2.27c1,.5,2.1.89,3.1,1.44a2.42,2.42,0,0,1,1.32,2.49,2.59,2.59,0,0,1-1.94,2.23,7.56,7.56,0,0,1-4,.19c-1.63-.34-3.23-.85-4.89-1.3l-1.16,4.69a14,14,0,0,0,4.75,1.44,15.09,15.09,0,0,0,8.92-1.06,7.21,7.21,0,0,0,4.33-6.21,6.87,6.87,0,0,0-3.57-7c-1.38-.8-2.91-1.33-4.35-2a15.69,15.69,0,0,1-3-1.71,2,2,0,0,1,.23-3.19,6.05,6.05,0,0,1,2.52-.79,11.28,11.28,0,0,1,5.85,1.19C121.52,121.62,122,120.08,122.41,118.44ZM21,138.62c-1.63.21-3.21.53-4.8.61-3.84.19-6.81-1.65-8-4.89a10.65,10.65,0,0,1,0-7.36,7.09,7.09,0,0,1,5.27-4.69,11.41,11.41,0,0,1,5.57.08c.63.15,1.24.36,1.9.55.34-1.29.66-2.51,1-3.72.26-1,.27-1-.71-1.31a17.68,17.68,0,0,0-8.45-.55c-4.54.75-8.09,3-10.12,7.25a14.86,14.86,0,0,0-1.2,8.62c.7,5,3.36,8.57,8.27,10.23a17.52,17.52,0,0,0,7.51.67c1.37-.15,2.71-.52,4.07-.8a.49.49,0,0,0,.45-.67C21.51,141.27,21.26,139.88,21,138.62Zm111.59-16.11v21.23h6V122.49h7.09v-5H125.52v5ZM177.87,174c.48,0,.91,0,1.33,0s.61-.13.63-.57c.14-2.8.31-5.59.46-8.38.07-1.19.13-2.39.18-3.38,1.29,3.76,2.64,7.68,4,11.61a.76.76,0,0,0,.91.59c.47,0,.86,0,1.08-.58,1.23-3.48,2.5-6.95,3.76-10.42.13-.36.25-.72.37-1.08a1.33,1.33,0,0,1,.25.71c.16,3.28.31,6.55.46,9.83.09,1.95-.21,1.65,1.77,1.65a1,1,0,0,0,.26-.08c0-.28,0-.57,0-.85q-.22-3.68-.46-7.35c-.11-1.62-.21-3.25-.35-4.87,0-.55,0-1.37-.33-1.58a3,3,0,0,0-1.78-.09,1,1,0,0,0-.67.49c-1.12,2.93-2.2,5.87-3.28,8.81-.3.81-.53,1.64-.85,2.64-.13-.34-.2-.49-.25-.63-1.09-3.22-2.17-6.45-3.3-9.66-.64-1.82-.68-1.79-2.61-1.68-.41,0-.55.19-.57.57,0,.93-.09,1.85-.16,2.77-.12,1.65-.26,3.29-.38,4.94C178.15,169.56,178,171.71,177.87,174Zm-97.05,0V159.22a9.43,9.43,0,0,1-1.07,0c-.56-.06-.69.18-.69.71,0,2.68,0,5.35,0,8v3.18c-.36-.68-.72-1.45-1.17-2.17-1.81-2.88-3.7-5.72-5.46-8.64a2,2,0,0,0-2.08-1.13c-.61.05-.83.15-.83.81,0,4.41,0,8.82,0,13.22,0,.24,0,.47,0,.72h1.7V161.76s.07.05.09.09q3.59,5.79,7.18,11.59a1.11,1.11,0,0,0,.62.52A10.85,10.85,0,0,0,80.82,174Zm24.48-8a2.58,2.58,0,0,1,.24-.19c1.65-.9,2.28-2,2.09-3.62a3.25,3.25,0,0,0-2.91-2.85,21.16,21.16,0,0,0-4.57-.19c-1.46.08-1.45.2-1.45,1.68v12.42c0,.31-.12.73.44.72,1.79-.05,3.6,0,5.37-.17a3.88,3.88,0,0,0,3.52-2.78C108.6,169.16,108.11,167.09,105.3,166ZM152,174a9.7,9.7,0,0,1,1.09,0c.68.09.93-.15.91-.87,0-1.8,0-3.61,0-5.41,0-.48.15-.63.63-.62,2,0,4,0,6.06,0a3.64,3.64,0,0,1,.55.09V174h2V159.22c-2-.3-2-.3-2,1.57v4.53H154c0-.24,0-.43,0-.62,0-1.63,0-3.26,0-4.89,0-.5-.15-.72-.67-.68s-.86,0-1.33,0Zm75.31,0v-6.36c.76,0,1.45-.05,2.12,0a2.4,2.4,0,0,1,2.22,1.52,11.69,11.69,0,0,1,.45,1.38c.27,1,.48,1.94.77,2.89a.88.88,0,0,0,.52.57,9.86,9.86,0,0,0,1.64,0c-.32-1.23-.63-2.37-.91-3.52-.35-1.44-.69-2.87-2.11-3.51a11.25,11.25,0,0,0,1.82-1.57,3.77,3.77,0,0,0-2.56-6.08,36.43,36.43,0,0,0-5.23-.07c-.64,0-.81.25-.81.87,0,4.38,0,8.77,0,13.15,0,.23,0,.46,0,.69ZM15.66,159.14c-.52,0-1,0-1.39,0s-.65.14-.64.63c0,3.16,0,6.32.15,9.48a4.59,4.59,0,0,0,2.94,4.49,6,6,0,0,0,6.37-.94,6,6,0,0,0,1.76-4.7c0-2.75,0-5.5,0-8.25a6.84,6.84,0,0,0-.06-.7,10.34,10.34,0,0,1-1.12,0c-.67-.07-.88.17-.87.85,0,2.7.05,5.41,0,8.11a8,8,0,0,1-.44,2.41,3.06,3.06,0,0,1-3.25,2.06,3,3,0,0,1-3-2.11,9.28,9.28,0,0,1-.43-2.56c0-2.63,0-5.26,0-7.89ZM83.45,174c.51,0,.92,0,1.32,0,.55.06.82-.13,1-.69.33-1.14.76-2.25,1.11-3.39.13-.43.31-.63.8-.61,1.39,0,2.78,0,4.17,0a.67.67,0,0,1,.78.55c.38,1.21.8,2.4,1.23,3.58.08.21.3.5.49.53a15,15,0,0,0,1.79,0c-.12-.38-.19-.63-.28-.88-1.45-4.17-2.89-8.35-4.37-12.51-.63-1.79-.12-1.38-2-1.48-.68,0-.92.24-1.13.83-1.14,3.33-2.32,6.64-3.48,10C84.38,171.24,83.93,172.56,83.45,174Zm-22.19,0c-.1-.31-.16-.54-.24-.76q-2.21-6.34-4.42-12.67c-.49-1.42-.49-1.38-2-1.44-.71,0-1,.26-1.18.86-1.51,4.42-3.06,8.82-4.6,13.22-.07.22-.12.45-.21.79.51,0,.92,0,1.32,0s.77-.18.92-.67c.36-1.16.78-2.3,1.13-3.47a.68.68,0,0,1,.79-.55c1.38,0,2.77,0,4.16,0,.49,0,.67.19.81.61.37,1.16.76,2.31,1.19,3.44.09.25.36.57.58.6A10.9,10.9,0,0,0,61.26,174Zm60.86,0,.64,0c2.39,0,4.78,0,7.16,0,.71,0,.78-.3.78-.87s-.08-.89-.78-.87c-1.73,0-3.46,0-5.19,0-.21,0-.58-.19-.59-.3,0-1.63,0-3.25,0-5h5.81v-1.62h-5.77v-4.54h6.06v-1.65h-8.1Zm52.56-8.6h-5.76v-4.52H175v-1.65H166.9V174H175c.71,0,.4-.59.44-.94s.1-.77-.49-.76-1.41,0-2.12,0h-3.88V167h5.75Zm-146.93,7.9a8.08,8.08,0,0,0,6.82.34,4,4,0,0,0,.32-7.2c-.48-.28-1-.49-1.51-.73A19.72,19.72,0,0,1,31,164.51a2,2,0,0,1,.33-3.58,6.62,6.62,0,0,1,2.56-.26,8.77,8.77,0,0,1,1.91.48,4.67,4.67,0,0,0,.36-1.05.77.77,0,0,0-.3-.64,7.1,7.1,0,0,0-5.61.09,3.65,3.65,0,0,0-.55,6.42,24.81,24.81,0,0,0,2.52,1.28,9.82,9.82,0,0,1,2,1.17,2.23,2.23,0,0,1-.35,3.57,4,4,0,0,1-3,.48c-.87-.18-1.71-.49-2.62-.75ZM10.13,159.62c-2.24-.83-4.41-1.09-6.5.17a3.6,3.6,0,0,0-.25,6.11,14.09,14.09,0,0,0,2.17,1.16c.63.32,1.3.56,1.92.89a2.3,2.3,0,0,1,1.17,2.54A2.1,2.1,0,0,1,7,172.31a6.37,6.37,0,0,1-2.3.14,20.31,20.31,0,0,1-2.64-.7c0,.13-.14.32-.21.52-.35,1-.34,1.09.67,1.42a8.27,8.27,0,0,0,5.51.06,4.06,4.06,0,0,0,2.6-4.87c-.39-1.63-1.63-2.4-3-3a24.69,24.69,0,0,1-2.7-1.27,2,2,0,0,1-.63-3,2.46,2.46,0,0,1,2.19-1c1,.07,2.08.29,3.19.45Zm200,.09a6.93,6.93,0,0,0-6.73.23,3.58,3.58,0,0,0-.48,5.53,11.64,11.64,0,0,0,2.67,1.59c.66.36,1.4.58,2,1a2.32,2.32,0,0,1-.23,4.1,3.34,3.34,0,0,1-1.68.38c-1.21-.13-2.41-.42-3.71-.67a4.09,4.09,0,0,1-.25.7c-.25.52-.09.81.43,1a8.11,8.11,0,0,0,6,.13,3.8,3.8,0,0,0,2.52-3.15,3.72,3.72,0,0,0-1.69-3.92c-.69-.44-1.48-.71-2.21-1.1a12.39,12.39,0,0,1-2.37-1.39,1.89,1.89,0,0,1,.3-3,3.47,3.47,0,0,1,1.77-.55,25.49,25.49,0,0,1,3.17.43Zm-60.95-.09a8.57,8.57,0,0,0-4.43-.64,7.15,7.15,0,0,0-6.2,3.87,8.53,8.53,0,0,0-.45,6.73,6.24,6.24,0,0,0,4.19,4.16,10.36,10.36,0,0,0,5.47.16c1.47-.31,1.53-.44,1-1.83,0,0,0,0-.06,0-3,.79-5.92,1.08-8-1.89a6.94,6.94,0,0,1,.14-7.27c2.09-2.71,4.88-2.59,7.86-1.73Zm93.56,14.24c0-1.83,0-3.67,0-5.52a2.3,2.3,0,0,1,.28-1.09c.85-1.5,1.75-3,2.63-4.46l2.16-3.65a11.1,11.1,0,0,0-1.66,0,1.28,1.28,0,0,0-.84.5c-1.09,2-2.13,4-3.19,6-.08.16-.18.3-.3.5-1.15-2.22-2.25-4.36-3.37-6.48-.11-.21-.34-.48-.54-.5a18.14,18.14,0,0,0-2,0c.17.35.28.59.41.81.77,1.38,1.47,2.81,2.35,4.12a10.12,10.12,0,0,1,2,7.37,6.46,6.46,0,0,0,0,.88c0,1.82,0,1.82,1.85,1.63C242.59,174,242.61,173.94,242.74,173.86ZM42.82,174A10.43,10.43,0,0,1,44,174c.69.09.92-.16.91-.88,0-3.79,0-7.59,0-11.38,0-.28,0-.56,0-.91h4.47v-1.69H46.78c-2.63,0-5.26,0-7.89,0-.24,0-.63.2-.68.38a5.79,5.79,0,0,0,0,1.33h4.64Zm169.23-13.14h4.55v13.08h2V160.85c1.33,0,2.59,0,3.85,0,.7,0,.78-.28.78-.86s-.07-.88-.78-.88c-3.26,0-6.52,0-9.79,0-.21,0-.42,0-.64.05ZM113.16,172.3v-12c0-1.14,0-1.09-1.14-1.15-.72,0-.9.21-.89.91,0,4.38,0,8.76,0,13.15,0,.25,0,.51,0,.76h8.39V172.3ZM65.75,174V159.14a7.4,7.4,0,0,1-1.06,0c-.74-.1-.95.18-.94.93,0,4.35,0,8.71,0,13.07V174Zm132.8-14.73a6.82,6.82,0,0,1-1,0c-.77-.12-.92.22-.91.93,0,4.33,0,8.66,0,13v.81h1.92Z"/><path class="b" d="M110.12,86.81h39.33a6.46,6.46,0,0,0,6.73-6.33c0-.61.06-1.22.06-1.82q0-14.2,0-28.41a7.59,7.59,0,0,0-2.09-5.66,5.74,5.74,0,0,0-4.25-1.79H110.24c0-.06-.11-.09-.11-.13.06-2.79-.37-5.62.3-8.36a7.72,7.72,0,0,1,5.76-6.17,7.1,7.1,0,0,1,1.73-.16h50.15a7.69,7.69,0,0,1,8,6.31,11.33,11.33,0,0,1,.3,2.6q0,28.37,0,56.75a9,9,0,0,1-3.53,7.57,6.6,6.6,0,0,1-4.09,1.34H117.77a7.57,7.57,0,0,1-7.2-5.79,9.81,9.81,0,0,1-.43-2.58C110.08,91.76,110.12,89.33,110.12,86.81Z"/><path class="c" d="M140.13,15.41h-1.06c-12.84,0-25.68,0-38.53,0a6.54,6.54,0,0,0-6.5,5.7A11.94,11.94,0,0,0,93.9,23V52.05a7.32,7.32,0,0,0,3,6.33,5.73,5.73,0,0,0,3.44,1H139.9c.07.09.13.13.13.17a78.87,78.87,0,0,1-.3,8.15,7.62,7.62,0,0,1-6.16,6.42,7.38,7.38,0,0,1-1.24.08c-16.79,0-33.58,0-50.37,0a7.8,7.8,0,0,1-7.66-5.77,12.87,12.87,0,0,1-.46-3.38q0-28.2,0-56.39a8.66,8.66,0,0,1,2.5-6.56,6.86,6.86,0,0,1,4.93-2c17,0,33.93,0,50.89,0a7.53,7.53,0,0,1,7.72,6.6C140.21,9.54,140.05,12.43,140.13,15.41Z"/><path class="d" d="M224.27,123.71c-.3,6.54-.61,13.27-.92,20h-5.57c.56-8.72,1.12-17.44,1.68-26.25H222c1.61,0,3.22,0,4.83,0a.68.68,0,0,1,.8.6c1.63,5.65,3.44,11.24,4.51,17a5,5,0,0,0,.18.59c.24-.93.41-1.72.64-2.48q2.27-7.65,4.56-15.29a.7.7,0,0,1,.52-.43c2.43,0,4.87,0,7.43,0,.47,8.75.93,17.47,1.4,26.25H241c-.23-6.83-.47-13.63-.7-20.49-.24.86-.46,1.69-.71,2.51q-2.61,8.53-5.25,17.06a.83.83,0,0,1-.53.51c-1.41,0-2.83,0-4.39,0Z"/><path class="e" d="M100.5,117.49c.46,8.77.93,17.49,1.4,26.26H96q-.35-10.22-.69-20.38a1.8,1.8,0,0,0-.15.31q-2.9,9.52-5.76,19c-.14.46-.33.66-.85.65-1.32-.05-2.63,0-4.13,0-1.73-6.61-3.46-13.25-5.13-19.65-.29,6.5-.61,13.26-.92,20H72.85c.56-8.74,1.11-17.46,1.67-26.21.22,0,.38-.05.55-.05,2.26,0,4.53,0,6.79,0,.42,0,.65.08.78.53,1.64,5.7,3.47,11.34,4.54,17.19,0,.11.08.22.17.49.43-1.68.77-3.23,1.22-4.74,1.29-4.33,2.62-8.65,4-13,.06-.2.33-.48.5-.48C95.47,117.48,97.93,117.49,100.5,117.49Z"/><path class="b" d="M47.39,143.76H41.5V132.85H31.76v10.9H25.88V117.53h5.85v10h9.76v-10h5.9Z"/><path class="d" d="M163.13,131.36a6.48,6.48,0,0,1,3.39,4.51c.74,2.62,1.41,5.25,2.12,7.92-1.87,0-3.77,0-5.66,0-.19,0-.49-.29-.55-.51-.55-1.86-1.06-3.73-1.59-5.6-.21-.72-.42-1.45-.7-2.15a3,3,0,0,0-2.65-2c-.87-.07-1.74,0-2.68,0v10.23H148.9v-25.9c.83-.09,1.67-.22,2.51-.28a39.54,39.54,0,0,1,9.54.07,9.21,9.21,0,0,1,4.69,2A7,7,0,0,1,163.85,131Zm-8.37-2.23a10.74,10.74,0,0,0,1.4,0,18.34,18.34,0,0,0,3.57-.57,3.2,3.2,0,0,0,2.09-3.41,3.08,3.08,0,0,0-2.67-3.11,26.81,26.81,0,0,0-3.91-.14c-.43,0-.48.28-.48.64,0,1.43,0,2.87,0,4.31Z"/><path class="d" d="M214.9,143.79c-2.06,0-4.06,0-6.05,0-.19,0-.46-.3-.53-.51q-.88-2.77-1.69-5.58c-.13-.43-.29-.63-.78-.63-2.1,0-4.19,0-6.29,0-.49,0-.67.15-.79.61-.48,1.81-1,3.6-1.5,5.41-.06.22-.14.45-.21.69H191c.05-.21.07-.39.12-.56q3.81-12.53,7.6-25a.81.81,0,0,1,.95-.7c2.17,0,4.34,0,6.51,0a.67.67,0,0,1,.77.54q3.92,12.63,7.87,25.25C214.83,143.41,214.85,143.56,214.9,143.79Zm-12.3-21.64q-1.35,5.14-2.72,10.4h5.65C204.54,129.05,203.57,125.6,202.6,122.15Z"/><path class="d" d="M172.07,117.53h16.15v4.86H178v5.42h9.59v4.89H178v6.19h10.71v4.85H172.07Z"/><path class="f" d="M52.7,143.75V117.54H68.85v4.85H58.69v5.41h9.56v4.85H58.69v6.26h10.7v4.84Z"/><path class="d" d="M122.41,118.44c-.46,1.64-.89,3.18-1.34,4.76a11.28,11.28,0,0,0-5.85-1.19,6.05,6.05,0,0,0-2.52.79,2,2,0,0,0-.23,3.19,15.69,15.69,0,0,0,3,1.71c1.44.7,3,1.23,4.35,2a6.87,6.87,0,0,1,3.57,7,7.21,7.21,0,0,1-4.33,6.21,15.09,15.09,0,0,1-8.92,1.06,14,14,0,0,1-4.75-1.44l1.16-4.69c1.66.45,3.26,1,4.89,1.3a7.56,7.56,0,0,0,4-.19,2.59,2.59,0,0,0,1.94-2.23,2.42,2.42,0,0,0-1.32-2.49c-1-.55-2.08-.94-3.1-1.44a28.39,28.39,0,0,1-4.3-2.27,7,7,0,0,1,.63-11.82,11.76,11.76,0,0,1,7.23-1.57,42.88,42.88,0,0,1,5,.92A6.11,6.11,0,0,1,122.41,118.44Z"/><path class="f" d="M21,138.62c.24,1.26.49,2.65.76,4a.49.49,0,0,1-.45.67c-1.36.28-2.7.65-4.07.8a17.52,17.52,0,0,1-7.51-.67c-4.91-1.66-7.57-5.18-8.27-10.23a14.86,14.86,0,0,1,1.2-8.62c2-4.26,5.58-6.5,10.12-7.25a17.68,17.68,0,0,1,8.45.55c1,.32,1,.34.71,1.31-.33,1.21-.65,2.43-1,3.72-.66-.19-1.27-.4-1.9-.55a11.41,11.41,0,0,0-5.57-.08A7.09,7.09,0,0,0,8.23,127a10.65,10.65,0,0,0,0,7.36c1.18,3.24,4.15,5.08,8,4.89C17.81,139.15,19.39,138.83,21,138.62Z"/><path class="d" d="M132.61,122.51h-7.09v-5h20.15v5h-7.09v21.25h-6Z"/><path class="g" d="M177.87,174c.15-2.28.28-4.43.43-6.58.12-1.65.26-3.29.38-4.94.07-.92.12-1.84.16-2.77,0-.38.16-.54.57-.57,1.93-.11,2-.14,2.61,1.68,1.13,3.21,2.21,6.44,3.3,9.66.05.14.12.29.25.63.32-1,.55-1.83.85-2.64,1.08-2.94,2.16-5.88,3.28-8.81a1,1,0,0,1,.67-.49,3,3,0,0,1,1.78.09c.32.21.28,1,.33,1.58.14,1.62.24,3.25.35,4.87q.24,3.68.46,7.35c0,.28,0,.57,0,.85a1,1,0,0,1-.26.08c-2,0-1.68.3-1.77-1.65-.15-3.28-.3-6.55-.46-9.83a1.33,1.33,0,0,0-.25-.71c-.12.36-.24.72-.37,1.08-1.26,3.47-2.53,6.94-3.76,10.42-.22.61-.61.56-1.08.58a.76.76,0,0,1-.91-.59c-1.32-3.93-2.67-7.85-4-11.61-.05,1-.11,2.19-.18,3.38-.15,2.79-.32,5.58-.46,8.38,0,.44-.2.59-.63.57S178.35,174,177.87,174Z"/><path class="h" d="M80.82,174a10.85,10.85,0,0,1-1.62,0,1.11,1.11,0,0,1-.62-.52q-3.6-5.79-7.18-11.59s-.07-.06-.09-.09v12.18h-1.7c0-.25,0-.48,0-.72,0-4.4,0-8.81,0-13.22,0-.66.22-.76.83-.81a2,2,0,0,1,2.08,1.13c1.76,2.92,3.65,5.76,5.46,8.64.45.72.81,1.49,1.17,2.17V168c0-2.68,0-5.35,0-8,0-.53.13-.77.69-.71a9.43,9.43,0,0,0,1.07,0Z"/><path class="h" d="M105.3,166c2.81,1.06,3.3,3.13,2.73,5a3.88,3.88,0,0,1-3.52,2.78c-1.77.19-3.58.12-5.37.17-.56,0-.44-.41-.44-.72V160.86c0-1.48,0-1.6,1.45-1.68a21.16,21.16,0,0,1,4.57.19,3.25,3.25,0,0,1,2.91,2.85c.19,1.62-.44,2.72-2.09,3.62A2.58,2.58,0,0,0,105.3,166Zm-4.66,6.64a28.05,28.05,0,0,0,3.16-.26,2.57,2.57,0,0,0,2.36-2.62,2.64,2.64,0,0,0-2.28-2.7,15.62,15.62,0,0,0-2.82-.21.56.56,0,0,0-.4.37C100.63,169,100.64,170.73,100.64,172.67Zm0-7.3a23.19,23.19,0,0,0,2.65,0,2.6,2.6,0,0,0,2.42-2.4c0-1.19-.86-2.12-2.35-2.33a9.93,9.93,0,0,0-2.18,0,.72.72,0,0,0-.51.52C100.61,162.52,100.63,163.9,100.63,165.37Z"/><path class="h" d="M152,174V159.14c.47,0,.9,0,1.33,0s.67.18.67.68c0,1.63,0,3.26,0,4.89,0,.19,0,.38,0,.62h7.17v-4.53c0-1.87,0-1.87,2-1.57V174h-2V167.2a3.64,3.64,0,0,0-.55-.09c-2,0-4,0-6.06,0-.48,0-.64.14-.63.62,0,1.8,0,3.61,0,5.41,0,.72-.23,1-.91.87A9.7,9.7,0,0,0,152,174Z"/><path class="i" d="M227.26,174h-2c0-.23,0-.46,0-.69,0-4.38,0-8.77,0-13.15,0-.62.17-.88.81-.87a36.43,36.43,0,0,1,5.23.07,3.77,3.77,0,0,1,2.56,6.08A11.25,11.25,0,0,1,232,167c1.42.64,1.76,2.07,2.11,3.51.28,1.15.59,2.29.91,3.52a9.86,9.86,0,0,1-1.64,0,.88.88,0,0,1-.52-.57c-.29-.95-.5-1.93-.77-2.89a11.69,11.69,0,0,0-.45-1.38,2.4,2.4,0,0,0-2.22-1.52c-.67-.06-1.36,0-2.12,0Zm0-7.72a30.87,30.87,0,0,0,3.53-.45,2.37,2.37,0,0,0,1.78-2.45,2.16,2.16,0,0,0-1.65-2.44,14.43,14.43,0,0,0-3.23-.22c-.14,0-.41.32-.42.5C227.2,162.77,227.22,164.37,227.22,166.23Z"/><path class="h" d="M15.66,159.14V160c0,2.63,0,5.26,0,7.89a9.28,9.28,0,0,0,.43,2.56,3,3,0,0,0,3,2.11,3.06,3.06,0,0,0,3.25-2.06,8,8,0,0,0,.44-2.41c.05-2.7,0-5.41,0-8.11,0-.68.2-.92.87-.85a10.34,10.34,0,0,0,1.12,0,6.84,6.84,0,0,1,.06.7c0,2.75,0,5.5,0,8.25a6,6,0,0,1-1.76,4.7,6,6,0,0,1-6.37.94,4.59,4.59,0,0,1-2.94-4.49c-.16-3.16-.1-6.32-.15-9.48,0-.49.18-.65.64-.63S15.14,159.14,15.66,159.14Z"/><path class="g" d="M83.45,174c.48-1.43.93-2.75,1.39-4.07,1.16-3.33,2.34-6.64,3.48-10,.21-.59.45-.86,1.13-.83,1.9.1,1.39-.31,2,1.48,1.48,4.16,2.92,8.34,4.37,12.51.09.25.16.5.28.88a15,15,0,0,1-1.79,0c-.19,0-.41-.32-.49-.53-.43-1.18-.85-2.37-1.23-3.58a.67.67,0,0,0-.78-.55c-1.39,0-2.78,0-4.17,0-.49,0-.67.18-.8.61-.35,1.14-.78,2.25-1.11,3.39-.16.56-.43.75-1,.69C84.37,174,84,174,83.45,174Zm8.53-6.2-2.25-6.64-2.21,6.64Z"/><path class="g" d="M61.26,174a10.9,10.9,0,0,1-1.73,0c-.22,0-.49-.35-.58-.6-.43-1.13-.82-2.28-1.19-3.44-.14-.42-.32-.63-.81-.61-1.39,0-2.78,0-4.16,0a.68.68,0,0,0-.79.55c-.35,1.17-.77,2.31-1.13,3.47-.15.49-.38.74-.92.67s-.81,0-1.32,0c.09-.34.14-.57.21-.79,1.54-4.4,3.09-8.8,4.6-13.22.21-.6.47-.89,1.18-.86,1.49.06,1.49,0,2,1.44q2.2,6.33,4.42,12.67C61.1,173.45,61.16,173.68,61.26,174Zm-6.4-12.86-2.2,6.66H57.1Z"/><path class="g" d="M122.12,174V159.19h8.1v1.65h-6.06v4.54h5.77V167h-5.81c0,1.72,0,3.34,0,5,0,.11.38.3.59.3,1.73,0,3.46,0,5.19,0,.7,0,.79.28.78.87s-.07.88-.78.87c-2.38,0-4.77,0-7.16,0Z"/><path class="g" d="M174.68,165.36V167h-5.75v5.3h3.88c.71,0,1.42,0,2.12,0s.53.41.49.76.27.93-.44.94H166.9v-14.8H175v1.65h-6.09v4.52Z"/><path class="g" d="M27.75,173.26l.5-1.54c.91.26,1.75.57,2.62.75a4,4,0,0,0,3-.48,2.23,2.23,0,0,0,.35-3.57,9.82,9.82,0,0,0-2-1.17A24.81,24.81,0,0,1,29.73,166a3.65,3.65,0,0,1,.55-6.42,7.1,7.1,0,0,1,5.61-.09.77.77,0,0,1,.3.64,4.67,4.67,0,0,1-.36,1.05,8.77,8.77,0,0,0-1.91-.48,6.62,6.62,0,0,0-2.56.26,2,2,0,0,0-.33,3.58,19.72,19.72,0,0,0,2.35,1.16c.5.24,1,.45,1.51.73a4,4,0,0,1-.32,7.2A8.08,8.08,0,0,1,27.75,173.26Z"/><path class="g" d="M10.13,159.62,9.64,161c-1.11-.16-2.15-.38-3.19-.45a2.46,2.46,0,0,0-2.19,1,2,2,0,0,0,.63,3,24.69,24.69,0,0,0,2.7,1.27c1.38.63,2.62,1.4,3,3A4.06,4.06,0,0,1,8,173.75a8.27,8.27,0,0,1-5.51-.06c-1-.33-1-.41-.67-1.42.07-.2.16-.39.21-.52a20.31,20.31,0,0,0,2.64.7,6.37,6.37,0,0,0,2.3-.14,2.1,2.1,0,0,0,1.67-1.82A2.3,2.3,0,0,0,7.47,168c-.62-.33-1.29-.57-1.92-.89a14.09,14.09,0,0,1-2.17-1.16,3.6,3.6,0,0,1,.25-6.11C5.72,158.53,7.89,158.79,10.13,159.62Z"/><path class="g" d="M210.13,159.71l-.47,1.33a25.49,25.49,0,0,0-3.17-.43,3.47,3.47,0,0,0-1.77.55,1.89,1.89,0,0,0-.3,3,12.39,12.39,0,0,0,2.37,1.39c.73.39,1.52.66,2.21,1.1a3.72,3.72,0,0,1,1.69,3.92,3.8,3.8,0,0,1-2.52,3.15,8.11,8.11,0,0,1-6-.13c-.52-.2-.68-.49-.43-1a4.09,4.09,0,0,0,.25-.7c1.3.25,2.5.54,3.71.67a3.34,3.34,0,0,0,1.68-.38,2.32,2.32,0,0,0,.23-4.1c-.63-.4-1.37-.62-2-1a11.64,11.64,0,0,1-2.67-1.59,3.58,3.58,0,0,1,.48-5.53A6.93,6.93,0,0,1,210.13,159.71Z"/><path class="g" d="M149.18,159.62l-.51,1.51c-3-.86-5.77-1-7.86,1.73a6.94,6.94,0,0,0-.14,7.27c2.08,3,5,2.68,8,1.89,0,0,.06,0,.06,0,.56,1.39.5,1.52-1,1.83a10.36,10.36,0,0,1-5.47-.16,6.24,6.24,0,0,1-4.19-4.16,8.53,8.53,0,0,1,.45-6.73,7.15,7.15,0,0,1,6.2-3.87A8.57,8.57,0,0,1,149.18,159.62Z"/><path class="h" d="M242.74,173.86c-.13.08-.15.1-.17.1-1.85.19-1.85.19-1.85-1.63a6.46,6.46,0,0,1,0-.88,10.12,10.12,0,0,0-2-7.37c-.88-1.31-1.58-2.74-2.35-4.12-.13-.22-.24-.46-.41-.81a18.14,18.14,0,0,1,2,0c.2,0,.43.29.54.5,1.12,2.12,2.22,4.26,3.37,6.48.12-.2.22-.34.3-.5,1.06-2,2.1-4,3.19-6a1.28,1.28,0,0,1,.84-.5,11.1,11.1,0,0,1,1.66,0l-2.16,3.65c-.88,1.48-1.78,3-2.63,4.46a2.3,2.3,0,0,0-.28,1.09C242.73,170.19,242.74,172,242.74,173.86Z"/><path class="h" d="M42.82,174V160.87H38.18a5.79,5.79,0,0,1,0-1.33c0-.18.44-.38.68-.38,2.63,0,5.26,0,7.89,0h2.59v1.69H44.9c0,.35,0,.63,0,.91,0,3.79,0,7.59,0,11.38,0,.72-.22,1-.91.88A10.43,10.43,0,0,0,42.82,174Z"/><path class="g" d="M212.05,160.85v-1.66c.22,0,.43-.05.64-.05,3.27,0,6.53,0,9.79,0,.71,0,.78.29.78.88s-.08.89-.78.86c-1.26-.06-2.52,0-3.85,0v13.08h-2V160.85Z"/><path class="j" d="M113.16,172.3h6.41v1.64h-8.39c0-.25,0-.51,0-.76,0-4.39,0-8.77,0-13.15,0-.7.17-.94.89-.91,1.14.06,1.14,0,1.14,1.15v12Z"/><path class="g" d="M65.75,174h-2v-.82c0-4.36,0-8.72,0-13.07,0-.75.2-1,.94-.93a7.4,7.4,0,0,0,1.06,0Z"/><path class="h" d="M198.55,159.22v14.72h-1.92v-.81c0-4.33,0-8.66,0-13,0-.71.14-1,.91-.93A6.82,6.82,0,0,0,198.55,159.22Z"/><path class="k" d="M154.76,129.13v-2.29c0-1.44,0-2.88,0-4.31,0-.36.05-.65.48-.64a26.81,26.81,0,0,1,3.91.14,3.08,3.08,0,0,1,2.67,3.11,3.2,3.2,0,0,1-2.09,3.41,18.34,18.34,0,0,1-3.57.57A10.74,10.74,0,0,1,154.76,129.13Z"/><path class="l" d="M202.6,122.15c1,3.45,1.94,6.9,2.93,10.4h-5.65Q201.25,127.3,202.6,122.15Z"/><path class="m" d="M100.64,172.67c0-1.94,0-3.68,0-5.42a.56.56,0,0,1,.4-.37,15.62,15.62,0,0,1,2.82.21,2.64,2.64,0,0,1,2.28,2.7,2.57,2.57,0,0,1-2.36,2.62A28.05,28.05,0,0,1,100.64,172.67Z"/><path class="m" d="M100.63,165.37c0-1.47,0-2.85,0-4.23a.72.72,0,0,1,.51-.52,9.93,9.93,0,0,1,2.18,0c1.49.21,2.38,1.14,2.35,2.33a2.6,2.6,0,0,1-2.42,2.4A23.19,23.19,0,0,1,100.63,165.37Z"/><path class="n" d="M227.22,166.23c0-1.86,0-3.46,0-5.06,0-.18.28-.51.42-.5a14.43,14.43,0,0,1,3.23.22,2.16,2.16,0,0,1,1.65,2.44,2.37,2.37,0,0,1-1.78,2.45A30.87,30.87,0,0,1,227.22,166.23Z"/><path class="o" d="M92,167.79H87.52l2.21-6.64Z"/><path class="o" d="M54.86,161.13l2.24,6.66H52.66Z"/></svg>