<?xml version="1.0" encoding="UTF-8"?>
<svg id="Layer_1" xmlns="http://www.w3.org/2000/svg" viewBox="0 0 255.12 188.14">
  <defs>
    <style>
      .cls-1 {
        fill: #231f20;
      }

      .cls-2 {
        fill: #ed1c24;
      }
    </style>
  </defs>
  <path class="cls-2" d="M153.22,88.55c-3.04,3.04-6.48,5.41-10.16,7.12h40.44c3.89-6.66,6.46-13.87,7.75-21.26h-29.38c-1.68,5.17-4.55,10.03-8.66,14.14M178.47,33.02l1.45-1.45c-2.55-3.94-5.3-7.95-8.77-11.42-25.1-25.09-63.13-27.76-88.63-2.27-21.1,21.09-24.46,53.19-10.09,77.79h40.45c-3.68-1.71-7.12-4.08-10.16-7.12-13.95-13.94-13.95-36.54,0-50.48,10.87-10.87,24.68-12.21,36.61-6.31l-27.65,27.64,20.2,20.19,27.02-27,19.57-19.56Z"/>
  <path class="cls-1" d="M25.19,138.03h-15.19c.79-3.58,3.98-5.66,7.6-5.66s6.81,2.09,7.59,5.66M34.96,144.7c.18-.89.24-1.73.24-2.62,0-9.96-7.41-18.06-17.66-18.06S0,132.18,0,141.78s7.96,17.53,17.72,17.53c7.33,0,13.12-4.58,16.09-10.93h-10.45c-1.51,1.69-3.17,2.58-5.64,2.58-3.92,0-7.23-2.32-7.83-6.26h25.07ZM56.14,133.41h2.02v-9.32c-1.3,0-4.38.08-4.38.08-3.61.14-7.62,1.36-9.99,4.23-2.71,3.34-3.01,6.08-3.01,10.2v19.79h10.01v-18.3c0-3.76.84-6.68,5.36-6.68M87.27,141.66c0,4.77-3.5,8.47-8.38,8.47s-8.32-3.76-8.32-8.35,3.38-8.53,8.26-8.53,8.44,3.58,8.44,8.41M87.27,158.24h10v-33.09h-10v3.52h-.12c-1.99-3.28-6.09-4.65-9.76-4.65-10.06,0-16.81,7.99-16.81,17.65s6.51,17.71,16.81,17.71c3.62,0,7.95-1.31,9.76-4.71h.12v3.58ZM112.82,134.15c0-1.49,1.51-2.2,2.83-2.2,1.75,0,3.07.66,3.13,2.5h9.82c-.66-7.04-6.15-10.43-12.84-10.43s-12.96,4-12.96,10.91c0,4.65,3.98,7.21,7.96,8.64,1.45.54,2.89,1.01,4.34,1.49,1.81.72,4.52,1.43,4.52,3.82,0,1.73-1.99,2.56-3.49,2.56-1.99,0-3.5-1.01-3.8-3.04h-9.95c.78,7.27,6.63,10.97,13.62,10.97s13.62-3.81,13.62-11.27c0-11.69-16.81-8.76-16.81-13.95M176.52,158.39h10v-19.79c0-4.11-.3-6.86-3.01-10.2-2.37-2.87-6.37-4.09-9.99-4.23,0,0-1.26-.08-2.6-.08s-2.6.08-2.6.08c-2.74.11-5.71,1.19-8.02,2.79-2.3-1.6-5.27-2.68-8.02-2.79,0,0-1.26-.08-2.6-.08s-2.6.08-2.6.08c-3.61.14-7.62,1.36-9.99,4.23-2.71,3.34-3.01,6.08-3.01,10.2v19.79h10v-18.3c0-3.76.84-6.76,5.36-6.76h.47c4.52,0,5.36,3,5.36,6.76v18.3h10.03v-18.3c0-3.76.84-6.76,5.36-6.76h.47c4.52,0,5.36,3,5.36,6.76v18.3ZM220.59,155.14c2.71-3.34,3.01-6.08,3.01-10.2v-19.79h-10v18.3c0,3.76-.84,6.75-5.36,6.75h-.47c-4.52,0-5.36-3-5.36-6.75v-18.3h-10v19.79c0,4.11.3,6.86,3.01,10.2,2.37,2.87,6.39,4.09,9.99,4.23,0,0,1.3.08,2.6.08s2.6-.08,2.6-.08c3.62-.14,7.62-1.36,9.99-4.23M244.27,134.45h9.82c-.66-7.04-6.15-10.43-12.84-10.43s-12.96,4-12.96,10.91c0,4.65,3.98,7.21,7.96,8.64,1.45.54,2.89,1.01,4.34,1.49,1.81.72,4.52,1.43,4.52,3.82,0,1.73-1.99,2.56-3.5,2.56-1.99,0-3.49-1.01-3.8-3.04h-9.94c.78,7.27,6.63,10.97,13.62,10.97s13.62-3.81,13.62-11.27c0-11.69-16.81-8.76-16.81-13.95,0-1.49,1.51-2.2,2.83-2.2,1.75,0,3.07.66,3.13,2.5"/>
  <polygon class="cls-1" points="10.82 187.87 10.82 181.67 4.94 181.67 4.94 187.87 2.86 187.87 2.86 173.62 4.94 173.62 4.94 179.76 10.82 179.76 10.82 173.62 12.9 173.62 12.9 187.87 10.82 187.87"/>
  <path class="cls-1" d="M24.29,188.14c-4.08,0-7.41-3.31-7.41-7.39s3.31-7.39,7.41-7.39,7.41,3.29,7.41,7.43-3.35,7.36-7.41,7.36M24.29,175.25c-2.21,0-3.97,1.2-4.83,3.22-.31.71-.5,1.48-.5,2.27s.19,1.58.5,2.31c.89,2,2.64,3.18,4.83,3.18,2.35,0,4.16-1.35,4.97-3.52.23-.6.37-1.25.37-1.91,0-3.02-2.23-5.55-5.33-5.55"/>
  <path class="cls-1" d="M45.31,187.44c-.96.44-2.04.69-3.1.69-4.08,0-7.3-3.29-7.3-7.36s3.16-7.43,7.28-7.43c2.68,0,5.12,1.5,6.39,3.85h-2.43c-1.06-1.19-2.25-1.95-3.89-1.95-3,0-5.28,2.6-5.28,5.53s2.35,5.45,5.3,5.45c2.27,0,4.1-1.44,4.91-3.54h-6.64v-1.91h9.01c-.04,2.93-1.56,5.43-4.26,6.66"/>
  <polygon class="cls-1" points="53.24 187.87 53.24 173.62 60.92 173.62 60.92 175.52 55.32 175.52 55.32 179.72 60.92 179.72 60.92 181.63 55.32 181.63 55.32 185.96 60.92 185.96 60.92 187.87 53.24 187.87"/>
  <path class="cls-1" d="M68.43,188.14c-2.6,0-4.39-1.91-4.39-4.49h2.08c0,1.39.81,2.58,2.31,2.58,1.42,0,2.29-1.02,2.29-2.41,0-1.52-1.1-1.87-2.29-2.33-2.21-.85-3.99-1.5-3.99-4.28,0-2.21,1.81-3.87,3.99-3.87,2.37,0,4.08,1.56,4.08,3.97h-2.08c0-1.23-.77-2.06-2-2.06-1.04,0-1.91.91-1.91,1.95,0,3.02,6.28,1.21,6.28,6.63,0,2.56-1.83,4.31-4.37,4.31"/>
  <path class="cls-1" d="M87.28,177.26c-1.06-1.23-2.33-2-4.01-2-3,0-5.29,2.48-5.29,5.45s2.29,5.53,5.26,5.53c1.5,0,2.93-.75,3.89-1.89h2.56c-1.35,2.37-3.74,3.79-6.47,3.79-4.06,0-7.32-3.43-7.32-7.45s3.27-7.34,7.34-7.34c1.52,0,3.12.5,4.35,1.39,1,.71,1.6,1.46,2.19,2.52h-2.5Z"/>
  <polygon class="cls-1" points="101.39 187.87 101.39 181.67 95.51 181.67 95.51 187.87 93.43 187.87 93.43 173.62 95.51 173.62 95.51 179.76 101.39 179.76 101.39 173.62 103.47 173.62 103.47 187.87 101.39 187.87"/>
  <path class="cls-1" d="M114.86,188.14c-4.08,0-7.41-3.31-7.41-7.39s3.31-7.39,7.41-7.39,7.41,3.29,7.41,7.43-3.35,7.36-7.41,7.36M114.86,175.25c-2.21,0-3.97,1.2-4.83,3.22-.31.71-.5,1.48-.5,2.27s.19,1.58.5,2.31c.89,2,2.64,3.18,4.83,3.18,2.35,0,4.16-1.35,4.97-3.52.23-.6.37-1.25.37-1.91,0-3.02-2.23-5.55-5.33-5.55"/>
  <path class="cls-1" d="M132.92,188.14c-4.08,0-7.41-3.31-7.41-7.39s3.31-7.39,7.41-7.39,7.41,3.29,7.41,7.43-3.35,7.36-7.41,7.36M132.92,175.25c-2.21,0-3.97,1.2-4.83,3.22-.31.71-.5,1.48-.5,2.27s.19,1.58.5,2.31c.88,2,2.64,3.18,4.83,3.18,2.35,0,4.16-1.35,4.97-3.52.23-.6.37-1.25.37-1.91,0-3.02-2.23-5.55-5.33-5.55"/>
  <polygon class="cls-1" points="144.37 187.87 144.37 173.62 146.45 173.62 146.45 185.96 151.4 185.96 151.4 187.87 144.37 187.87"/>
  <path class="cls-1" d="M177.65,185.44c-.79,1.81-2.54,2.43-4.39,2.43h-4.26v-14.25h3.7c1.81,0,3.47.62,4.16,2.39.19.5.29,1.04.29,1.56,0,1.18-.4,1.94-1.27,2.7,1.35.77,2.12,1.87,2.12,3.46,0,.6-.12,1.18-.35,1.71M172.67,175.52h-1.58v4.03h1.7c1.35,0,2.29-.58,2.29-2,0-1.52-1.08-2.02-2.41-2.02M175.42,182.32c-.6-.79-1.4-.87-2.33-.87h-2v4.51h2.25c1.35,0,2.58-.77,2.58-2.23,0-.5-.19-1.02-.5-1.4"/>
  <path class="cls-1" d="M188.74,182.28c-.42.15-.92.27-1.39.27l3.99,5.31h-2.6l-4.7-6.61h-.04v6.61h-2.08v-14.25h4.41c1.35,0,2.79.21,3.79,1.2.91.87,1.31,2.14,1.31,3.37,0,1.93-.85,3.45-2.7,4.1M186.2,175.52h-2.2v5.45h1.43c1.85,0,3.93-.52,3.93-2.79,0-1.81-1.5-2.66-3.16-2.66"/>
  <path class="cls-1" d="M203.39,186.92c-.9.81-2.12,1.21-3.33,1.21s-2.43-.4-3.33-1.21c-1.06-.94-1.45-2.27-1.45-3.66v-9.65h2.08v9.59c0,1.7.93,3.02,2.7,3.02s2.7-1.33,2.7-3.02v-9.59h2.08v9.65c0,1.39-.38,2.71-1.45,3.66"/>
  <path class="cls-1" d="M212.94,188.14c-2.6,0-4.39-1.91-4.39-4.49h2.08c0,1.39.81,2.58,2.31,2.58,1.42,0,2.29-1.02,2.29-2.41,0-1.52-1.1-1.87-2.29-2.33-2.21-.85-3.99-1.5-3.99-4.28,0-2.21,1.81-3.87,3.99-3.87,2.37,0,4.08,1.56,4.08,3.97h-2.08c0-1.23-.77-2.06-2-2.06-1.04,0-1.91.91-1.91,1.95,0,3.02,6.28,1.21,6.28,6.63,0,2.56-1.83,4.31-4.37,4.31"/>
  <path class="cls-1" d="M224.77,188.14c-2.6,0-4.39-1.91-4.39-4.49h2.08c0,1.39.81,2.58,2.31,2.58s2.29-1.02,2.29-2.41c0-1.52-1.1-1.87-2.29-2.33-2.21-.85-3.99-1.5-3.99-4.28,0-2.21,1.81-3.87,3.99-3.87,2.37,0,4.08,1.56,4.08,3.97h-2.08c0-1.23-.77-2.06-2-2.06-1.04,0-1.91.91-1.91,1.95,0,3.02,6.28,1.21,6.28,6.63,0,2.56-1.83,4.31-4.37,4.31"/>
  <polygon class="cls-1" points="233.05 187.87 233.05 173.62 240.73 173.62 240.73 175.52 235.13 175.52 235.13 179.72 240.73 179.72 240.73 181.63 235.13 181.63 235.13 185.96 240.73 185.96 240.73 187.87 233.05 187.87"/>
  <polygon class="cls-1" points="245.06 187.87 245.06 173.62 247.14 173.62 247.14 185.96 252.09 185.96 252.09 187.87 245.06 187.87"/>
</svg>