<?xml version="1.0" encoding="utf-8"?>
<!-- Generator: Adobe Illustrator 23.1.0, SVG Export Plug-In . SVG Version: 6.00 Build 0)  -->
<svg version="1.1" id="Vrstva_1" xmlns="http://www.w3.org/2000/svg" xmlns:xlink="http://www.w3.org/1999/xlink" x="0px" y="0px"
	 viewBox="0 0 2163.86 607.54" style="enable-background:new 0 0 2163.86 607.54;" xml:space="preserve">
<style type="text/css">
	.st0{fill:#1E4592;}
	.st1{fill:#FDEC0A;}
	.st2{fill:#585856;}
</style>
<rect x="5.01" y="98.3" class="st0" width="616.71" height="411.19"/>
<polygon class="st1" points="300.24,187.9 313.26,178.41 326.26,187.9 321.32,172.55 334.54,163.05 318.25,163.05 313.26,147.51 
	308.27,163.06 291.99,163.05 305.2,172.55 "/>
<polygon class="st1" points="232.9,206 245.91,196.5 258.91,206 253.98,190.65 267.18,181.14 250.89,181.14 245.9,165.58 
	240.92,181.16 224.63,181.14 237.84,190.65 "/>
<polygon class="st1" points="196.63,214.96 191.65,230.54 175.35,230.52 188.57,240.02 183.62,255.38 196.63,245.89 209.64,255.38 
	204.69,240.02 217.91,230.52 201.61,230.52 "/>
<polygon class="st1" points="178.55,313.15 191.56,322.65 186.61,307.29 199.83,297.8 183.54,297.8 178.55,282.23 173.57,297.83 
	157.27,297.8 170.5,307.29 165.54,322.65 "/>
<polygon class="st1" points="201.62,365.26 196.63,349.7 191.64,365.28 175.37,365.26 188.57,374.75 183.61,390.12 196.63,380.6 
	209.65,390.12 204.69,374.75 217.9,365.26 "/>
<polygon class="st1" points="250.99,414.63 246.01,399.08 241.02,414.64 224.73,414.63 237.94,424.12 232.99,439.48 246.01,429.98 
	259.02,439.48 254.07,424.12 267.29,414.63 "/>
<polygon class="st1" points="318.25,432.52 313.27,416.96 308.29,432.54 291.99,432.52 305.2,442.02 300.26,457.38 313.27,447.88 
	326.28,457.38 321.33,442.02 334.55,432.52 "/>
<polygon class="st1" points="385.51,414.63 380.53,399.08 375.54,414.64 359.27,414.63 372.46,424.12 367.52,439.48 380.53,429.98 
	393.55,439.48 388.59,424.12 401.81,414.63 "/>
<polygon class="st1" points="434.91,365.26 429.92,349.7 424.92,365.28 408.64,365.26 421.86,374.75 416.89,390.12 429.92,380.6 
	442.93,390.12 437.97,374.75 451.19,365.26 "/>
<polygon class="st1" points="469.07,297.6 452.77,297.6 447.77,282.04 442.8,297.62 426.51,297.6 439.72,307.1 434.78,322.46 
	447.77,312.94 460.79,322.46 455.85,307.1 "/>
<polygon class="st1" points="416.89,255.18 429.91,245.68 442.93,255.18 437.97,239.83 451.18,230.34 434.91,230.34 429.91,214.78 
	424.92,230.36 408.64,230.34 421.86,239.83 "/>
<polygon class="st1" points="380.72,165.6 375.74,181.17 359.45,181.14 372.66,190.65 367.71,206.01 380.74,196.5 393.74,206.01 
	388.79,190.65 402.01,181.14 385.71,181.14 "/>
<path class="st2" d="M858.16,264.06c-11.49,0-20.79,3.67-27.9,11c-7.1,7.33-11.22,18.2-12.34,32.63h78.78
	c-0.22-12.63-3.44-23.05-9.63-31.28C880.87,268.18,871.23,264.06,858.16,264.06 M858.16,232.62c24.57,0,44.01,7.33,58.33,21.98
	c14.31,14.65,21.48,35.06,21.48,61.2v21.65H816.9c0.45,16.68,5.07,29.58,13.87,38.72c8.79,9.13,20.96,13.69,36.52,13.69
	c11.72,0,22.3-1.19,31.77-3.55c9.47-2.37,19.17-5.8,29.09-10.31v34.16c-9.02,4.28-18.37,7.43-28.07,9.46
	c-9.69,2.03-21.3,3.04-34.82,3.04c-18.04,0-33.93-3.43-47.68-10.31c-13.75-6.87-24.52-17.25-32.29-31.11
	c-7.78-13.87-11.66-31.28-11.66-52.25c0-31.32,7.72-55.22,23.16-71.68S832.68,232.62,858.16,232.62"/>
<path class="st2" d="M1130.02,236v183.28h-33.47l-5.75-23.68h-2.03c-5.86,9.47-13.98,16.35-24.35,20.63
	c-10.37,4.28-21.3,6.42-32.8,6.42c-20.51,0-36.58-5.29-48.18-15.89c-11.62-10.59-17.42-27.61-17.42-51.06V236h42.61v111.25
	c0,13.76,2.7,24.01,8.11,30.78c5.41,6.76,13.98,10.14,25.7,10.14c17.12,0,28.91-5.41,35.33-16.22c6.42-10.83,9.64-26.26,9.64-46.33
	V236H1130.02z"/>
<path class="st2" d="M1266.97,232.62c2.92,0,6.2,0.17,9.8,0.5c3.61,0.34,6.54,0.74,8.8,1.19l-3.71,39.56
	c-2.27-0.45-5.03-0.85-8.29-1.18c-3.27-0.34-6.03-0.5-8.28-0.5c-9.02,0-17.47,1.85-25.36,5.57c-7.89,3.72-14.25,9.43-19.1,17.08
	c-4.86,7.67-7.28,17.47-7.28,29.42v95.02h-42.6V236h32.8l6.09,31.78h2.02c5.41-9.7,12.85-17.97,22.32-24.85
	C1243.64,236.06,1254.57,232.62,1266.97,232.62"/>
<path class="st2" d="M1331.9,327.3c0,19.39,3.43,34.38,10.31,44.98c6.88,10.59,17.98,15.89,33.3,15.89
	c15.11,0,26.15-5.3,33.15-15.89c6.98-10.59,10.48-25.59,10.48-44.98c0-19.38-3.5-34.26-10.48-44.63
	c-7-10.38-18.15-15.56-33.48-15.56c-15.33,0-26.38,5.18-33.13,15.56C1335.27,293.04,1331.9,307.92,1331.9,327.3 M1462.75,327.3
	c0,30.43-7.89,53.93-23.66,70.51c-15.78,16.56-37.21,24.85-64.25,24.85c-16.69,0-31.57-3.71-44.63-11.16
	c-13.09-7.44-23.34-18.26-30.77-32.46c-7.45-14.2-11.16-31.45-11.16-51.74c0-30.43,7.82-53.82,23.49-70.17
	c15.68-16.34,37.03-24.51,64.09-24.51c16.9,0,31.89,3.67,44.97,10.98c13.08,7.34,23.33,18.04,30.77,32.12
	C1459.04,289.82,1462.75,307.01,1462.75,327.3"/>
<path class="st2" d="M1577.39,267.11c-15.11,0-25.76,4.51-31.95,13.53c-6.21,9.02-9.42,22.65-9.64,40.91v5.41
	c0,19.61,2.99,34.66,8.96,45.15c5.97,10.48,17.08,15.72,33.31,15.72c13.29,0,23.16-5.47,29.58-16.4
	c6.43-10.94,9.64-25.87,9.64-44.81c0-18.93-3.21-33.58-9.64-43.95C1601.22,272.3,1591.13,267.11,1577.39,267.11 M1589.55,232.62
	c21.41,0,38.65,7.95,51.74,23.83c13.07,15.9,19.61,39.52,19.61,70.84c0,31.34-6.71,55.07-20.11,71.18
	c-13.42,16.13-30.83,24.17-52.25,24.17c-13.53,0-24.46-2.47-32.8-7.44c-8.34-4.96-14.99-10.7-19.95-17.25h-2.71
	c0.68,4.29,1.3,8.91,1.86,13.87c0.56,4.96,0.85,9.69,0.85,14.2v74.39h-42.6V236h34.49l6.09,24.35h2.02
	c5.19-7.65,11.94-14.2,20.29-19.61C1564.42,235.33,1575.57,232.62,1589.55,232.62"/>
<path class="st2" d="M1794.47,332.71l-22.32,0.67c-18.72,0.68-31.68,3.89-38.89,9.64c-7.21,5.75-10.82,13.47-10.82,23.17
	c0,8.79,2.54,15.05,7.61,18.76c5.07,3.71,11.77,5.58,20.12,5.58c12.4,0,22.88-3.54,31.45-10.65c8.56-7.1,12.85-17.64,12.85-31.62
	V332.71z M1764.37,232.62c23.67,0,41.65,5.19,53.93,15.56c12.29,10.37,18.44,26.37,18.44,48.01v123.09h-30.1l-8.45-25.36h-1.35
	c-7.9,9.93-16.23,17.2-25.02,21.82c-8.8,4.61-20.75,6.93-35.85,6.93c-16.46,0-30.1-4.61-40.91-13.86
	c-10.83-9.24-16.23-23.55-16.23-42.94c0-18.93,6.93-33.14,20.79-42.61c13.86-9.47,34.89-14.76,63.06-15.89l31.79-1.02v-9.12
	c0-11.72-2.82-20.06-8.46-25.02c-5.63-4.96-13.53-7.45-23.66-7.45c-9.25,0-18.1,1.3-26.55,3.89c-8.45,2.59-16.85,5.8-25.19,9.63
	l-13.53-29.76c9.01-4.73,19.33-8.56,30.94-11.49C1739.63,234.09,1751.75,232.62,1764.37,232.62"/>
<path class="st2" d="M2001.41,366.19c0,18.48-6.59,32.52-19.78,42.1c-13.19,9.58-32.07,14.37-56.65,14.37
	c-12.84,0-23.83-0.91-32.96-2.71c-9.14-1.8-17.98-4.61-26.55-8.45v-36.18c9.02,4.29,18.99,7.89,29.93,10.82
	c10.93,2.94,21.24,4.4,30.94,4.4c11.72,0,20.17-1.81,25.36-5.41c5.18-3.61,7.78-8.45,7.78-14.54c0-3.6-1.02-6.81-3.05-9.63
	c-2.03-2.82-5.97-5.92-11.84-9.3c-5.86-3.38-14.77-7.55-26.71-12.51c-11.72-4.74-21.48-9.47-29.25-14.2
	c-7.78-4.74-13.64-10.37-17.58-16.91c-3.95-6.54-5.92-14.99-5.92-25.36c0-16.45,6.54-28.91,19.61-37.37
	c13.08-8.45,30.33-12.68,51.74-12.68c11.27,0,21.92,1.13,31.95,3.38c10.03,2.26,20.12,5.65,30.26,10.14l-13.53,31.45
	c-8.57-3.61-16.91-6.65-25.02-9.13c-8.12-2.48-16.46-3.72-25.03-3.72c-18.72,0-28.06,5.3-28.06,15.89c0,3.84,1.18,7.1,3.55,9.81
	c2.37,2.71,6.53,5.58,12.51,8.62c5.97,3.04,14.48,6.71,25.52,10.99c10.83,4.28,20.18,8.73,28.07,13.36
	c7.9,4.62,13.98,10.25,18.27,16.91C1999.27,346.98,2001.41,355.59,2001.41,366.19"/>
<path class="st2" d="M2153.57,366.19c0,18.48-6.59,32.52-19.78,42.1c-13.19,9.58-32.07,14.37-56.65,14.37
	c-12.85,0-23.83-0.91-32.96-2.71c-9.14-1.8-17.98-4.61-26.55-8.45v-36.18c9.01,4.29,18.99,7.89,29.93,10.82
	c10.93,2.94,21.24,4.4,30.94,4.4c11.72,0,20.17-1.81,25.36-5.41c5.18-3.61,7.78-8.45,7.78-14.54c0-3.6-1.02-6.81-3.05-9.63
	c-2.03-2.82-5.97-5.92-11.84-9.3c-5.86-3.38-14.77-7.55-26.71-12.51c-11.72-4.74-21.48-9.47-29.25-14.2
	c-7.78-4.74-13.64-10.37-17.58-16.91c-3.95-6.54-5.92-14.99-5.92-25.36c0-16.45,6.54-28.91,19.61-37.37
	c13.08-8.45,30.33-12.68,51.74-12.68c11.27,0,21.92,1.13,31.95,3.38c10.03,2.26,20.12,5.65,30.26,10.14l-13.53,31.45
	c-8.57-3.61-16.91-6.65-25.03-9.13c-8.11-2.48-16.45-3.72-25.02-3.72c-18.72,0-28.06,5.3-28.06,15.89c0,3.84,1.18,7.1,3.55,9.81
	c2.37,2.71,6.53,5.58,12.51,8.62c5.97,3.04,14.48,6.71,25.52,10.99c10.83,4.28,20.18,8.73,28.07,13.36
	c7.89,4.62,13.98,10.25,18.27,16.91C2151.43,346.98,2153.57,355.59,2153.57,366.19"/>
</svg>
