<svg xmlns="http://www.w3.org/2000/svg" xmlns:xlink="http://www.w3.org/1999/xlink" width="1921.67" height="247.86" viewBox="0 0 1921.67 247.86"><defs><style>.a{fill:none;}.b{fill:#000;}.c{clip-path:url(#a);}.d{clip-path:url(#c);}</style><clipPath id="a" transform="translate(-8.64 -4.41)"><rect class="a" x="8.64" y="7.26" width="363.83" height="241.47"/></clipPath><clipPath id="c" transform="translate(-8.64 -4.41)"><rect class="a" x="8.64" y="7.26" width="363.83" height="241.47"/></clipPath></defs><path class="b" d="M415.82,167.27" transform="translate(-8.64 -4.41)"/><path class="b" d="M604.43,7.47V249.21H575.67V78.46h-1.22L552.11,249.21H520.59l-22.34-172H497v172H468V7.47h49.26L535.58,170h1.23L555.47,7.47Z" transform="translate(-8.64 -4.41)"/><path class="b" d="M647.88,249.21,620.65,7.47h36.11l16.83,198h1.22l18.67-198h36.41l-30.6,241.74Z" transform="translate(-8.64 -4.41)"/><path class="b" d="M739.07,101.72a108.91,108.91,0,0,1,1.22-17.9,25.06,25.06,0,0,1,4.59-11.48,18.39,18.39,0,0,1,9-6.12,49.43,49.43,0,0,1,14.84-1.83q10.39,0,16.68,3.36a23.45,23.45,0,0,1,9.64,9.49V7.47h31.51V249.21H797.51V236.05q-4.29,8-10.86,11.32t-17.59,3.37a55.34,55.34,0,0,1-15-1.68,17.42,17.42,0,0,1-9.18-6,25,25,0,0,1-4.59-11.47,111.41,111.41,0,0,1-1.22-18.21ZM796,102q-4-9.48-13.77-9.48-8,0-10.4,3.06t-2.45,12.24v99.75c0,6.12.81,10.21,2.45,12.24s5.1,3.06,10.4,3.06q9.79,0,13.77-9.48Z" transform="translate(-8.64 -4.41)"/><path class="b" d="M878.29,7.47l10.1,190h1.23l16.21-190h45l13.77,190h1.22L979,7.47h35.49L986.31,249.21H941.64L928.78,57.35h-1.22L910.73,249.21H865.44L843.1,7.47Z" transform="translate(-8.64 -4.41)"/><path class="b" d="M1073.83,161.08H1024V133.54h49.88Z" transform="translate(-8.64 -4.41)"/><path class="b" d="M1156.14,85.81v-30a93.63,93.63,0,0,0-.46-10.41,12.12,12.12,0,0,0-2-6,8,8,0,0,0-4.59-2.76,34.37,34.37,0,0,0-8-.76,33.86,33.86,0,0,0-8.1.76,7.88,7.88,0,0,0-4.44,2.76,12.12,12.12,0,0,0-2,6,93.63,93.63,0,0,0-.46,10.41V79.69a39.81,39.81,0,0,0,.61,7.65,12.44,12.44,0,0,0,2.6,5.5,24.07,24.07,0,0,0,5.82,4.9,117.52,117.52,0,0,0,10.55,5.81q15.91,8.27,25.1,14.08t13.77,11.78a29.61,29.61,0,0,1,5.81,13.47,125.71,125.71,0,0,1,1.22,19.43v38.86q0,16.83-2,26.93t-7.5,15.45q-5.51,5.35-15.45,7a158.64,158.64,0,0,1-25.56,1.68,142.78,142.78,0,0,1-24.17-1.68q-9.48-1.69-15-7t-7.65-15.45q-2.14-10.11-2.15-26.93v-48h34.28v48a89.27,89.27,0,0,0,.46,10.25,12.8,12.8,0,0,0,2,6,7.54,7.54,0,0,0,4.44,2.9,31.79,31.79,0,0,0,7.8.77q9.79,0,12.4-3.67t2.6-16.22V164.75a89.93,89.93,0,0,0-.46-10.09,16.12,16.12,0,0,0-2.45-7,20,20,0,0,0-6-5.66q-4-2.6-10.71-6.28-15.9-8.25-24.93-14.07T1098,109.83a29.49,29.49,0,0,1-5.82-13.16,107.77,107.77,0,0,1-1.22-17.6V55.82q0-16.83,2-26.93t7.5-15.61q5.5-5.5,15.3-7.19a155.4,155.4,0,0,1,25.39-1.68,150.25,150.25,0,0,1,24.94,1.68q9.64,1.7,15,7.19t7.34,15.61q2,10.09,2,26.93v30Z" transform="translate(-8.64 -4.41)"/><path class="b" d="M1300.57,213.41q0,12.85-1.84,20.5t-6.58,11.78q-4.74,4.14-13.31,5.36a199.51,199.51,0,0,1-44.06,0q-8.58-1.23-13.47-5.36t-6.58-11.78q-1.68-7.65-1.68-20.5V101.72q0-12.85,1.68-20.5t6.58-11.78q4.89-4.14,13.47-5.36a199.51,199.51,0,0,1,44.06,0q8.57,1.23,13.31,5.36t6.58,11.78q1.85,7.65,1.84,20.5Zm-30.3-108.33q0-8-2.44-10.4t-11-2.45q-8.57,0-11,2.6t-2.45,10.25V210.35q0,8,2.45,10.55t11,2.61q8.87,0,11.17-2.91t2.29-10.25Z" transform="translate(-8.64 -4.41)"/><path class="b" d="M1381.65,91.31H1358.4v157.9h-31.21V91.31h-11.33V65.92h11.33V46.33q0-20.19,10.1-29.53t34.27-9.33h9.79V30.73h-7.65q-15.3,0-15.3,17.13V65.92h23.25Z" transform="translate(-8.64 -4.41)"/><path class="b" d="M1452.64,91.31h-21.42V206.37q0,9.49,3.06,12.85t12.24,3.37h5.82v26.62h-8a82.84,82.84,0,0,1-21.11-2.29,32.61,32.61,0,0,1-13.77-7,25.69,25.69,0,0,1-7.35-12.09,62.67,62.67,0,0,1-2.14-17.44v-119h-11.32V65.92H1400V10.22h31.21v55.7h21.42Z" transform="translate(-8.64 -4.41)"/><path class="b" d="M1494.56,65.92,1504.05,203h1.22l15.61-137.08h40.7L1575.65,203h1.23L1588.2,65.92h33.35l-25.39,183.29h-42.23L1541.69,110h-1.23l-15.6,139.23h-42.54L1461.21,65.92Z" transform="translate(-8.64 -4.41)"/><path class="b" d="M1671.74,252.27a123.13,123.13,0,0,1-19.12-1.22q-7.5-1.23-11.79-4.9t-6-10.71q-1.69-7-1.69-18.67V172.4q0-16.52,6.28-24.17t21.57-7.65h5.81a97.38,97.38,0,0,1,14.69.76,21.28,21.28,0,0,1,6.43,2V105.39q0-10.1-2.6-13t-11.17-2.9q-8.26,0-10.4,3.36t-2.15,12.55v18h-28.46V101.72q0-12.85,1.69-20.5t6.27-11.78q4.59-4.14,12.55-5.36a140.33,140.33,0,0,1,20.5-1.22,165.28,165.28,0,0,1,22.34,1.22q8.57,1.23,13.31,5.36t6.58,11.78q1.83,7.65,1.83,20.5V249.21q-5.51,1.53-16.83,2.29T1671.74,252.27Zm2.45-25.7c4.48,0,7.75,0,9.79-.16a18.27,18.27,0,0,0,4-.46V166a13.08,13.08,0,0,0-5.2-1.53c-2-.2-4.8-.31-8.26-.31q-8.88,0-10.87,3.37t-2,12.85v28.76c0,3.48.1,6.33.31,8.57a12.25,12.25,0,0,0,1.53,5.36,6.35,6.35,0,0,0,3.82,2.75A25.17,25.17,0,0,0,1674.19,226.57Z" transform="translate(-8.64 -4.41)"/><path class="b" d="M1775.47,249.21h-31.21V65.92h29.07V78.16a25.36,25.36,0,0,1,10.25-10q6.89-3.83,18.21-3.82,15.9,0,22.18,8t6.28,29.38v45.59H1802.1V105.39q0-7.35-2.45-10.1c-1.64-1.83-5.1-2.75-10.41-2.75q-10.4,0-13.77,10.1Z" transform="translate(-8.64 -4.41)"/><path class="b" d="M1875.84,168.43v43.14q0,8.88,2.3,11.48t10.86,2.6c5.51,0,9.07-.87,10.71-2.6s2.45-5.56,2.45-11.48V186.79h28.15v26.62q0,12.85-1.68,20.5t-6.28,11.78q-4.59,4.14-12.54,5.36a143.2,143.2,0,0,1-20.81,1.22,162.2,162.2,0,0,1-22-1.22q-8.58-1.23-13.47-5.36t-6.58-11.78q-1.68-7.65-1.68-20.5V101.72q0-12.85,1.68-20.5t6.58-11.78q4.89-4.14,13.47-5.36a162.2,162.2,0,0,1,22-1.22,143.2,143.2,0,0,1,20.81,1.22q7.95,1.23,12.54,5.36t6.28,11.78q1.66,7.65,1.68,20.5v66.71Zm0-25.1h26.32V104.17q0-8.88-2.45-11.33c-1.64-1.63-5.2-2.44-10.71-2.44q-8.57,0-10.86,2.44t-2.3,11.33Z" transform="translate(-8.64 -4.41)"/><g class="c"><polyline points="120.28 196.14 181.92 98.13 105.17 98.13"/><g class="c"><g class="d"><g class="d"><polygon points="363.83 2.85 210.82 244.32 150.45 244.32 181.12 195.94 303.46 2.85 363.83 2.85"/><polygon points="271.2 244.32 363.83 98.13 363.83 244.32 303.46 244.32 271.2 244.32"/><polygon points="150.62 147.68 150.62 147.7 120.36 196.02 60.37 99.75 0 2.85 60.37 2.85 150.62 147.68"/><polygon points="60.37 196.62 60.37 244.32 0 244.32 0 99.75 60.37 196.62"/></g></g></g><path class="b" d="M279.84,248.73h0Z" transform="translate(-8.64 -4.41)"/><path class="b" d="M312.1,248.73v0Z" transform="translate(-8.64 -4.41)"/></g></svg>