<svg xmlns="http://www.w3.org/2000/svg" width="180.82mm" height="120mm" viewBox="0 0 512.55 340.17"><defs><style>.a{fill:#000;}</style></defs><polyline points="169.44 272.3 256.27 134.23 148.16 134.22"/><polygon points="512.55 0 297 340.17 211.95 340.17 255.15 272.01 427.5 0 512.55 0"/><polygon points="382.05 340.17 512.55 134.22 512.55 340.17 427.5 340.17 382.05 340.17"/><polygon points="212.19 204.03 212.19 204.06 169.56 272.13 85.05 136.5 0 0 85.05 0 212.19 204.03"/><polygon points="85.05 272.97 85.05 340.17 0 340.17 0 136.5 85.05 272.97"/><path class="a" d="M169.45,136.5" transform="translate(0 0)"/><path class="a" d="M254.49,136.5" transform="translate(0 0)"/><line class="a" x1="382.05" y1="340.17" x2="427.5" y2="340.17"/><line class="a" x1="427.5" y1="268.44" x2="427.5" y2="340.17"/></svg>