<?xml version="1.0" encoding="utf-8"?>
<!-- Generator: Adobe Illustrator 26.0.3, SVG Export Plug-In . SVG Version: 6.00 Build 0)  -->
<svg version="1.1" id="Laag_1" xmlns="http://www.w3.org/2000/svg" xmlns:xlink="http://www.w3.org/1999/xlink" x="0px" y="0px"
	 viewBox="0 0 1921.7 247.9" style="enable-background:new 0 0 1921.7 247.9;" xml:space="preserve">
<style type="text/css">
	.st0{fill:#FFFFFF;}
	.st1{clip-path:url(#SVGID_00000166633722244741277020000017762052841041070744_);}
	.st2{clip-path:url(#SVGID_00000134219092164036611510000003249959875522626489_);}
	.st3{clip-path:url(#SVGID_00000093142197308491626760000002196873601885646740_);}
	.st4{clip-path:url(#SVGID_00000140716369461110422550000012676602010207220407_);}
</style>
<path class="st0" d="M407.2,162.9"/>
<path class="st0" d="M595.8,3.1v241.7H567V74.1h-1.2l-22.3,170.8H512l-22.3-172h-1.3v172h-29V3.1h49.3l18.3,162.5h1.2L546.8,3.1
	H595.8z"/>
<path class="st0" d="M639.2,244.8L612,3.1h36.1l16.8,198h1.2l18.7-198h36.4l-30.6,241.7H639.2z"/>
<path class="st0" d="M730.4,97.3c-0.1-6,0.3-12,1.2-17.9c0.5-4.1,2.1-8.1,4.6-11.5c2.3-2.9,5.5-5,9-6.1c4.8-1.4,9.8-2,14.8-1.8
	c6.9,0,12.5,1.1,16.7,3.4c4.1,2.1,7.4,5.4,9.6,9.5V3.1h31.5v241.7h-29v-13.2c-2.9,5.3-6.5,9.1-10.9,11.3s-10.2,3.3-17.6,3.4
	c-5.1,0.1-10.1-0.4-15-1.7c-3.6-1-6.8-3.1-9.2-6c-2.5-3.4-4-7.3-4.6-11.5c-0.9-6-1.3-12.1-1.2-18.2V97.3z M787.4,97.6
	c-2.7-6.3-7.3-9.5-13.8-9.5c-5.3,0-8.8,1-10.4,3.1c-1.6,2-2.4,6.1-2.5,12.2v99.8c0,6.1,0.8,10.2,2.5,12.2s5.1,3.1,10.4,3.1
	c6.5,0,11.1-3.2,13.8-9.5V97.6z"/>
<path class="st0" d="M869.6,3.1l10.1,190h1.2l16.2-190h45l13.8,190h1.2l13.2-190h35.5l-28.2,241.7H933L920.1,52.9h-1.2l-16.8,191.9
	h-45.3L834.5,3.1H869.6z"/>
<path class="st0" d="M1065.2,156.7h-49.8v-27.5h49.9L1065.2,156.7z"/>
<path class="st0" d="M1147.5,81.4v-30c0-3.5-0.1-7-0.5-10.4c-0.1-2.1-0.8-4.2-2-6c-1.2-1.4-2.8-2.4-4.6-2.8c-2.6-0.6-5.3-0.8-8-0.8
	c-2.7-0.1-5.4,0.2-8.1,0.8c-1.8,0.4-3.3,1.4-4.4,2.8c-1.2,1.8-1.9,3.9-2,6c-0.3,3.5-0.5,6.9-0.5,10.4v23.9c0,2.6,0.2,5.1,0.6,7.7
	c0.4,2,1.3,3.9,2.6,5.5c1.7,1.9,3.6,3.6,5.8,4.9c3.4,2.1,6.9,4.1,10.6,5.8c10.6,5.5,19,10.2,25.1,14.1c6.1,3.9,10.7,7.8,13.8,11.8
	c3,3.9,5,8.6,5.8,13.5c0.9,6.4,1.3,12.9,1.2,19.4v38.9c0,11.2-0.7,20.2-2,26.9c-1.3,6.7-3.8,11.9-7.5,15.4c-3.7,3.6-8.8,5.9-15.4,7
	c-8.5,1.2-17,1.8-25.6,1.7c-8.1,0.1-16.2-0.4-24.2-1.7c-6.3-1.1-11.3-3.5-15-7c-3.7-3.5-6.2-8.7-7.7-15.4
	c-1.4-6.7-2.1-15.7-2.2-26.9v-48h34.3v48c0,3.4,0.1,6.8,0.5,10.2c0.2,2.1,0.8,4.2,2,6c1.1,1.5,2.7,2.5,4.4,2.9
	c2.6,0.6,5.2,0.8,7.8,0.8c6.5,0,10.7-1.2,12.4-3.7s2.6-7.9,2.6-16.2v-36.5c0-3.4-0.1-6.7-0.5-10.1c-0.3-2.5-1.1-4.9-2.4-7
	c-1.6-2.3-3.6-4.2-6-5.7c-2.7-1.7-6.2-3.8-10.7-6.3c-10.6-5.5-18.9-10.2-24.9-14.1c-6-3.9-10.5-7.8-13.5-11.8c-3-3.8-5-8.4-5.8-13.2
	c-0.9-5.8-1.3-11.7-1.2-17.6V51.4c0-11.2,0.7-20.2,2-26.9c1.3-6.7,3.8-11.9,7.5-15.6c3.7-3.7,8.8-6.1,15.3-7.2
	c8.4-1.3,16.9-1.8,25.4-1.7c8.3-0.1,16.7,0.4,24.9,1.7c6.4,1.1,11.4,3.5,15,7.2s6,8.9,7.3,15.6c1.3,6.7,2,15.7,2,26.9v30
	L1147.5,81.4z"/>
<path class="st0" d="M1291.9,209c0,8.6-0.6,15.4-1.8,20.5c-1.2,5.1-3.4,9-6.6,11.8c-3.2,2.8-7.6,4.5-13.3,5.4
	c-14.6,1.6-29.4,1.6-44.1,0c-5.7-0.8-10.2-2.6-13.5-5.4s-5.5-6.7-6.6-11.8c-1.1-5.1-1.7-11.9-1.7-20.5V97.3c0-8.6,0.6-15.4,1.7-20.5
	c1.1-5.1,3.3-9,6.6-11.8c3.3-2.8,7.8-4.5,13.5-5.4c14.6-1.6,29.4-1.6,44.1,0c5.7,0.8,10.1,2.6,13.3,5.4c3.2,2.8,5.4,6.7,6.6,11.8
	c1.2,5.1,1.8,11.9,1.8,20.5V209z M1261.6,100.7c0-5.3-0.8-8.8-2.4-10.4c-1.6-1.6-5.3-2.4-11-2.4c-5.7,0-9.4,0.9-11,2.6
	c-1.6,1.7-2.4,5.2-2.4,10.2v105.3c0,5.3,0.8,8.9,2.4,10.6c1.6,1.7,5.3,2.6,11,2.6c5.9,0,9.6-1,11.2-2.9c1.5-1.9,2.3-5.4,2.3-10.2
	L1261.6,100.7z"/>
<path class="st0" d="M1373,86.9h-23.2v157.9h-31.2V86.9h-11.3V61.5h11.3V41.9c0-13.5,3.4-23.3,10.1-29.5s18.2-9.3,34.3-9.3h9.8v23.3
	h-7.7c-10.2,0-15.3,5.7-15.3,17.1v18.1h23.2V86.9z"/>
<path class="st0" d="M1444,86.9h-21.4V202c0,6.3,1,10.6,3.1,12.9c2,2.2,6.1,3.4,12.2,3.4h5.8v26.6h-8c-7.1,0.1-14.2-0.6-21.1-2.3
	c-5.1-1.2-9.8-3.6-13.8-7c-3.5-3.3-6.1-7.5-7.3-12.1c-1.5-5.7-2.2-11.6-2.1-17.4V87H1380V61.5h11.3V5.8h31.2v55.7h21.4L1444,86.9z"
	/>
<path class="st0" d="M1485.9,61.5l9.5,137.1h1.2l15.6-137.1h40.7l14.1,137.1h1.2l11.3-137.1h33.3l-25.4,183.3h-42.2L1533,105.6h-1.2
	l-15.6,139.2h-42.5l-21.1-183.3H1485.9z"/>
<path class="st0" d="M1663.1,247.9c-6.4,0.1-12.8-0.3-19.1-1.2c-5-0.8-8.9-2.5-11.8-4.9c-2.9-2.4-4.9-6-6-10.7
	c-1.1-4.7-1.7-10.9-1.7-18.7V168c0-11,2.1-19.1,6.3-24.2c4.2-5.1,11.4-7.6,21.6-7.6h5.8c4.9-0.1,9.8,0.1,14.7,0.8
	c2.2,0.3,4.4,1,6.4,2V101c0-6.7-0.9-11.1-2.6-13s-5.5-2.9-11.2-2.9c-5.5,0-9,1.1-10.4,3.4c-1.4,2.2-2.1,6.4-2.2,12.6v18h-28.5V97.3
	c0-8.6,0.6-15.4,1.7-20.5c1.1-5.1,3.2-9,6.3-11.8c3.1-2.8,7.2-4.5,12.6-5.4c6.8-0.9,13.6-1.3,20.5-1.2c7.5-0.1,14.9,0.3,22.3,1.2
	c5.7,0.8,10.2,2.6,13.3,5.4c3.2,2.8,5.4,6.7,6.6,11.8c1.2,5.1,1.8,11.9,1.8,20.5v147.5c-3.7,1-9.3,1.8-16.8,2.3
	S1675.3,247.9,1663.1,247.9z M1665.5,222.2c4.5,0,7.8,0,9.8-0.2c1.3,0,2.7-0.2,4-0.5v-59.9c-1.6-0.9-3.4-1.4-5.2-1.5
	c-2-0.2-4.8-0.3-8.3-0.3c-5.9,0-9.5,1.1-10.9,3.4s-2,6.5-2,12.9v28.8c0,3.5,0.1,6.3,0.3,8.6c0.1,1.9,0.6,3.7,1.5,5.4
	c0.9,1.4,2.2,2.4,3.8,2.8C1660.9,222,1663.2,222.2,1665.5,222.2z"/>
<path class="st0" d="M1766.8,244.8h-31.2V61.5h29.1v12.2c2.4-4.2,5.9-7.7,10.2-10c4.6-2.6,10.7-3.8,18.2-3.8c10.6,0,18,2.7,22.2,8
	c4.2,5.3,6.3,15.1,6.3,29.4v45.6h-28.2V101c0-4.9-0.8-8.3-2.4-10.1c-1.6-1.8-5.1-2.8-10.4-2.8c-6.9,0-11.5,3.4-13.8,10.1V244.8z"/>
<path class="st0" d="M1867.2,164v43.1c0,5.9,0.8,9.7,2.3,11.5c1.5,1.7,5.2,2.6,10.9,2.6c5.5,0,9.1-0.9,10.7-2.6s2.4-5.6,2.4-11.5
	v-24.8h28.2V209c0,8.6-0.6,15.4-1.7,20.5c-1.1,5.1-3.2,9-6.3,11.8c-3.1,2.8-7.2,4.5-12.5,5.4c-6.9,0.9-13.9,1.3-20.8,1.2
	c-7.4,0.1-14.7-0.3-22-1.2c-5.7-0.8-10.2-2.6-13.5-5.4c-3.3-2.8-5.5-6.7-6.6-11.8c-1.1-5.1-1.7-11.9-1.7-20.5V97.3
	c0-8.6,0.6-15.4,1.7-20.5c1.1-5.1,3.3-9,6.6-11.8c3.3-2.8,7.8-4.5,13.5-5.4c7.3-0.9,14.6-1.3,22-1.2c7-0.1,13.9,0.3,20.8,1.2
	c5.3,0.8,9.5,2.6,12.5,5.4c3.1,2.8,5.2,6.7,6.3,11.8c1.1,5.1,1.7,11.9,1.7,20.5V164H1867.2z M1867.2,138.9h26.3V99.8
	c0-5.9-0.8-9.7-2.4-11.3c-1.6-1.6-5.2-2.4-10.7-2.4c-5.7,0-9.3,0.8-10.9,2.4c-1.5,1.6-2.3,5.4-2.3,11.3V138.9z"/>
<g>
	<defs>
		<rect id="SVGID_1_" y="2.9" width="363.8" height="241.5"/>
	</defs>
	<use xlink:href="#SVGID_1_"  style="overflow:visible;fill:#FFFFFF;"/>
	<clipPath id="SVGID_00000132811113867441116020000002251706713692472497_">
		<use xlink:href="#SVGID_1_"  style="overflow:visible;"/>
	</clipPath>
	<g style="clip-path:url(#SVGID_00000132811113867441116020000002251706713692472497_);">
		<polyline class="st0" points="120.3,196.1 181.9,98.1 105.2,98.1 		"/>
		<g>
			<defs>
				<rect id="SVGID_00000060011807732531749230000016311206927709796252_" y="2.9" width="363.8" height="241.5"/>
			</defs>
			<use xlink:href="#SVGID_00000060011807732531749230000016311206927709796252_"  style="overflow:visible;fill:#FFFFFF;"/>
			<clipPath id="SVGID_00000163030640771307047850000000540449728504880570_">
				<use xlink:href="#SVGID_00000060011807732531749230000016311206927709796252_"  style="overflow:visible;"/>
			</clipPath>
			<g style="clip-path:url(#SVGID_00000163030640771307047850000000540449728504880570_);">
				<g>
					<defs>
						<rect id="SVGID_00000132076441539523840040000005817754474745013676_" y="2.9" width="363.8" height="241.5"/>
					</defs>
					<use xlink:href="#SVGID_00000132076441539523840040000005817754474745013676_"  style="overflow:visible;fill:#FFFFFF;"/>
					<clipPath id="SVGID_00000150789717148255140330000003264845735243914369_">
						<use xlink:href="#SVGID_00000132076441539523840040000005817754474745013676_"  style="overflow:visible;"/>
					</clipPath>
					<g style="clip-path:url(#SVGID_00000150789717148255140330000003264845735243914369_);">
						<g>
							<defs>
								<rect id="SVGID_00000150822937913970028260000017071689902588841097_" y="2.9" width="363.8" height="241.5"/>
							</defs>
							<use xlink:href="#SVGID_00000150822937913970028260000017071689902588841097_"  style="overflow:visible;fill:#FFFFFF;"/>
							<clipPath id="SVGID_00000087389447088071329580000008965719746146216885_">
								<use xlink:href="#SVGID_00000150822937913970028260000017071689902588841097_"  style="overflow:visible;"/>
							</clipPath>
							<g style="clip-path:url(#SVGID_00000087389447088071329580000008965719746146216885_);">
								<polygon class="st0" points="363.8,2.8 210.8,244.3 150.4,244.3 181.1,195.9 303.5,2.8 								"/>
								<polygon class="st0" points="271.2,244.3 363.8,98.1 363.8,244.3 303.5,244.3 								"/>
								<polygon class="st0" points="150.6,147.7 150.6,147.7 120.4,196 60.4,99.8 0,2.8 60.4,2.8 								"/>
								<polygon class="st0" points="60.4,196.6 60.4,244.3 0,244.3 0,99.8 								"/>
							</g>
						</g>
					</g>
				</g>
			</g>
		</g>
		<path class="st0" d="M271.2,244.3L271.2,244.3z"/>
		<path class="st0" d="M303.5,244.3L303.5,244.3z"/>
	</g>
</g>
</svg>
