<?xml version="1.0" standalone="no"?>
<!DOCTYPE svg PUBLIC "-//W3C//DTD SVG 20010904//EN"
 "http://www.w3.org/TR/2001/REC-SVG-20010904/DTD/svg10.dtd">
<svg version="1.0" xmlns="http://www.w3.org/2000/svg"
 width="1019.000000pt" height="389.000000pt" viewBox="0 0 1019.000000 389.000000"
 preserveAspectRatio="xMidYMid meet">

<g transform="translate(0.000000,389.000000) scale(0.100000,-0.100000)"
fill="#ffffff" stroke="none">
<path d="M397 3548 c-51 -30 -79 -90 -75 -160 l3 -53 405 0 405 0 0 115 0 115
-350 2 c-344 3 -351 2 -388 -19z"/>
<path d="M3055 3556 c-22 -7 -60 -25 -84 -41 -45 -30 -141 -147 -141 -172 0
-11 178 -13 1088 -11 l1087 3 0 67 c0 74 -16 105 -75 146 l-33 22 -901 -1
c-693 0 -910 -3 -941 -13z"/>
<path d="M8785 3541 c-33 -16 -76 -46 -96 -67 -60 -65 -101 -123 -94 -134 4
-6 126 -10 344 -10 371 0 402 4 479 60 44 31 141 147 142 168 0 9 -78 12 -357
12 l-358 0 -60 -29z"/>
<path d="M327 3073 c-4 -3 -7 -57 -7 -120 l0 -113 410 0 411 0 -3 118 -3 117
-401 3 c-220 1 -403 -1 -407 -5z"/>
<path d="M2707 3069 c-58 -14 -108 -43 -153 -91 -56 -59 -97 -115 -92 -128 2
-8 112 -11 358 -10 l354 0 56 26 c61 28 104 65 156 135 61 84 79 79 -303 78
-186 -1 -355 -5 -376 -10z"/>
<path d="M4197 3073 c-4 -3 -7 -57 -7 -120 l0 -113 408 2 407 3 0 115 0 115
-401 3 c-220 1 -403 -1 -407 -5z"/>
<path d="M8485 3073 c-42 -9 -101 -36 -133 -59 -32 -25 -132 -150 -132 -165 0
-5 159 -9 354 -9 382 0 393 1 475 56 46 30 146 158 136 174 -6 10 -656 13
-700 3z"/>
<path d="M329 2579 c-6 -3 -8 -56 -7 -120 l3 -114 405 0 405 0 3 118 3 117
-368 1 c-202 0 -383 1 -401 2 -19 1 -38 -1 -43 -4z"/>
<path d="M4199 2579 c-6 -3 -8 -56 -7 -120 l3 -114 405 0 405 0 0 115 0 115
-398 5 c-220 3 -403 2 -408 -1z"/>
<path d="M2314 2569 c-18 -5 -53 -24 -80 -41 -58 -40 -149 -152 -140 -174 5
-13 48 -15 359 -12 l354 3 69 35 c55 28 78 48 121 104 29 37 53 74 53 82 0 12
-57 14 -352 13 -194 0 -367 -5 -384 -10z"/>
<path d="M8059 2561 c-25 -10 -60 -29 -78 -42 -47 -34 -136 -158 -124 -170 7
-7 138 -9 364 -7 l354 3 60 32 c33 17 72 44 86 60 38 41 99 124 99 134 0 5
-161 9 -357 9 -319 -1 -363 -3 -404 -19z"/>
<path d="M327 2083 c-4 -3 -7 -57 -7 -120 l0 -113 408 2 407 3 0 115 0 115
-401 3 c-220 1 -403 -1 -407 -5z"/>
<path d="M1948 2076 c-73 -26 -128 -67 -178 -133 -27 -36 -50 -72 -50 -79 0
-12 63 -14 350 -14 321 0 354 2 400 19 28 11 66 31 85 45 42 32 125 139 125
160 0 14 -38 16 -347 16 -260 -1 -357 -4 -385 -14z"/>
<path d="M3085 2076 c-54 -17 -95 -40 -127 -71 -38 -35 -108 -129 -108 -143 0
-9 263 -11 1078 -10 l1077 3 0 115 0 115 -940 2 c-735 1 -949 -1 -980 -11z"/>
<path d="M5818 2076 c-73 -26 -128 -67 -178 -133 -27 -36 -50 -72 -50 -79 0
-12 141 -14 840 -14 l840 0 0 120 0 120 -707 0 c-556 -1 -716 -4 -745 -14z"/>
<path d="M7715 2076 c-62 -19 -97 -41 -136 -83 -51 -54 -99 -119 -99 -132 0
-9 95 -11 368 -9 l367 3 50 27 c69 36 194 175 180 198 -10 16 -679 12 -730 -4z"/>
<path d="M327 1593 c-4 -3 -7 -57 -7 -119 0 -93 3 -113 16 -118 24 -9 777 -7
792 2 9 6 12 38 10 123 l-3 114 -401 3 c-220 1 -403 -1 -407 -5z"/>
<path d="M1574 1580 c-69 -22 -132 -72 -189 -150 -61 -84 -73 -81 307 -79 383
1 418 6 501 79 59 53 121 136 113 155 -5 13 -53 15 -338 14 -301 0 -339 -2
-394 -19z"/>
<path d="M2721 1584 c-29 -8 -72 -27 -94 -42 -49 -33 -148 -151 -144 -172 2
-13 50 -15 357 -15 319 0 359 2 395 18 68 30 113 67 160 130 77 104 96 97
-287 96 -257 0 -345 -4 -387 -15z"/>
<path d="M4197 1593 c-4 -3 -7 -57 -7 -119 0 -93 3 -113 16 -118 20 -8 768 -8
788 0 24 9 24 229 0 238 -21 8 -789 8 -797 -1z"/>
<path d="M5480 1590 c-87 -18 -157 -68 -226 -161 -61 -84 -74 -81 323 -77 303
4 354 6 395 22 55 21 123 77 172 145 63 86 81 81 -296 80 -183 -1 -349 -5
-368 -9z"/>
<path d="M6403 1593 c-9 -3 -13 -37 -13 -119 0 -110 1 -114 23 -119 12 -3 335
-5 717 -3 691 3 695 3 742 25 26 12 63 34 83 48 42 33 129 151 120 165 -6 10
-1647 13 -1672 3z"/>
<path d="M322 983 l3 -118 690 0 690 0 65 36 c49 27 78 53 118 103 28 38 52
74 52 82 0 12 -124 14 -810 14 l-811 0 3 -117z"/>
<path d="M2329 1085 c-64 -23 -120 -68 -170 -134 -27 -35 -49 -70 -49 -77 0
-20 666 -20 731 -1 68 21 124 61 178 129 84 105 105 98 -301 97 -268 0 -362
-4 -389 -14z"/>
<path d="M4192 983 l3 -118 690 0 690 0 65 36 c49 27 78 53 118 103 28 38 52
74 52 82 0 12 -124 14 -810 14 l-811 0 3 -117z"/>
<path d="M6394 1087 c-2 -7 -3 -60 -2 -118 l3 -104 515 -3 c565 -2 576 -1 657
57 46 33 133 141 133 165 0 14 -65 16 -650 16 -529 0 -652 -2 -656 -13z"/>
<path d="M327 603 c-16 -16 -6 -111 16 -153 42 -81 33 -79 523 -81 276 0 445
3 470 10 63 17 128 64 183 133 86 108 142 98 -567 98 -340 0 -622 -3 -625 -7z"/>
<path d="M1987 599 c-52 -12 -91 -34 -138 -76 -43 -39 -109 -125 -109 -142 0
-15 3417 -16 3470 -1 20 5 57 23 82 39 51 32 147 146 148 174 0 16 -87 17
-1707 16 -960 -1 -1725 -5 -1746 -10z"/>
<path d="M6463 595 c-75 -23 -131 -63 -183 -132 -27 -36 -50 -72 -50 -79 0
-12 75 -14 428 -14 l427 0 60 29 c68 33 148 112 199 199 11 18 -821 16 -881
-3z"/>
</g>
</svg>
