<?xml version="1.0" encoding="UTF-8"?>
<svg id="LOGO" xmlns="http://www.w3.org/2000/svg" viewBox="0 0 809.45 745.12">
  <defs>
    <style>
      .cls-1 {
        fill: #fff;
      }

      .cls-2 {
        fill: none;
      }
    </style>
  </defs>
  <g>
    <path class="cls-1" d="M128.62,544.02h62.02l100.22-277.17.7-2.14h.5v155.13c0,24.66,1.53,48.3,11.49,69.57,18.17,36.01,56.03,61.28,100.26,63.08,1.68.07,3.37.11,5.07.11h0c1.7,0,3.39-.04,5.07-.11,44.23-1.8,82.1-27.07,100.26-63.08,9.96-21.28,11.49-44.92,11.49-69.57v-219.07h-61.48v232.15c-.28,11.35-1.51,22.36-6.65,32.64-8.33,14.65-23.72,25.12-41.83,27.26-.62.07-1.24.13-1.86.19-1.65.14-3.31.22-5,.22h0c-1.68,0-3.35-.08-5-.22-.62-.05-1.25-.11-1.86-.19-18.11-2.15-33.51-12.62-41.83-27.26-5.14-10.28-6.36-21.29-6.65-32.64v-232.15h-58.88s-19.19,0-19.19,0c-18.63,0-34.43,12.42-39.41,29.43-.18.46-.29.78-.29.78l-76.53,223.59h-.28l-89.89-253.8v182.07s59.55,161.17,59.55,161.17Z"/>
    <polygon class="cls-1" points="159.1 450.83 159.1 450.83 159.1 450.85 159.1 450.83"/>
    <path class="cls-1" d="M726.94,356.36c25.1-12.09,37.65-38.58,37.65-65.54,0-32.07-19.99-62.75-48.34-77.16-28.82-14.41-60.43-13.01-91.57-13.01l-79.79.14-.06,343.37h103.55c33-.93,67.87-2.78,95.29-22.77,26.5-19.99,41.83-48.34,41.83-81.81,0-39.04-20.92-71.12-58.57-83.2ZM608.74,262.42l28.95.05c13.48,0,32.42-.81,41.83,3.25,12.55,5.11,21.38,16.27,21.38,30.21,0,13.02-7.44,26.03-19.53,31.61-12.09,5.58-29.75,5.11-43.23,5.11l-29.42.07v-70.31ZM705.09,470.25c-16.73,11.16-33.93,12.09-52.53,12.09l-43.82-.02v-87.83h45.22c15.34,0,30.68-.47,45.09,6.97,14.88,8.37,22.78,18.6,22.78,35.33,0,14.41-5.11,25.57-16.73,33.47Z"/>
  </g>
  <g>
    <rect class="cls-2" x="68.96" y="4.63" width="735.86" height="735.85"/>
    <path class="cls-1" d="M809.45,745.12H64.32V0h745.13v745.12ZM73.59,735.85h726.59V9.27H73.59v726.58Z"/>
  </g>
  <polygon class="cls-1" points="0 200.85 69.08 383.01 69.08 269.13 69.08 200.85 0 200.85"/>
</svg>