<?xml version="1.0" encoding="UTF-8"?>
<svg id="Layer_2" xmlns="http://www.w3.org/2000/svg" viewBox="0 0 806.49 737.26">
  <defs>
    <style>
      .cls-1 {
        fill: #fff;
      }

      .cls-2 {
        fill: #e84e0f;
      }

      .cls-3 {
        fill: #184183;
      }
    </style>
  </defs>
  <g id="LOGO">
    <g>
      <path class="cls-3" d="M700.56,397.68c-14.44-7.45-29.81-6.99-45.19-6.99h-45.32v88.03l43.92.02c18.64,0,35.87-.93,52.64-12.11,11.65-7.92,16.77-19.1,16.77-33.54,0-16.77-7.92-27.02-22.83-35.41Z"/>
      <path class="cls-3" d="M682.85,323.62c12.12-5.59,19.57-18.64,19.57-31.68,0-13.98-8.85-25.16-21.43-30.28-9.44-4.08-28.42-3.26-41.93-3.26l-29.01-.05v70.47l29.48-.07c13.51,0,31.21.47,43.32-5.12Z"/>
      <path class="cls-3" d="M69.23,0v196.58l90.08,254.35h.28l76.7-224.07s.11-.32.29-.78c4.99-17.05,20.83-29.5,39.5-29.5h19.23s59,0,59,0v232.66c.28,11.38,1.51,22.41,6.66,32.71,8.35,14.68,23.77,25.17,41.92,27.32.62.07,1.24.13,1.87.19,1.65.14,3.32.22,5.01.22h0c1.69,0,3.36-.08,5.01-.22.63-.05,1.25-.12,1.87-.19,18.15-2.15,33.58-12.64,41.92-27.32,5.15-10.3,6.38-21.33,6.66-32.71v-232.66h61.61v219.54c0,24.71-1.53,48.4-11.51,69.72-18.2,36.09-56.15,61.41-100.48,63.22-1.69.07-3.38.11-5.08.11h0c-1.7,0-3.4-.04-5.08-.11-44.33-1.81-82.28-27.13-100.48-63.22-9.98-21.32-11.51-45.01-11.51-69.72v-155.46s-.5,0-.5,0l-.7,2.14-100.44,277.77h-62.15l-59.67-161.52v-68.43s0,426.64,0,426.64h737.26V0H69.23ZM159.44,447.19v-.02s0,0,0,0v.02ZM745.28,517.87c-27.49,20.03-62.43,21.9-95.5,22.82h-103.77s.06-344.11.06-344.11l79.96-.14c31.21,0,62.89-1.4,91.77,13.04,28.42,14.44,48.45,45.19,48.45,77.33,0,27.02-12.58,53.57-37.73,65.69,37.73,12.12,58.7,44.26,58.7,83.38,0,33.54-15.37,61.96-41.93,81.99Z"/>
      <polygon class="cls-1" points="159.44 447.19 159.45 447.17 159.45 447.16 159.44 447.19"/>
      <polygon class="cls-2" points="0 196.58 69.23 379.13 69.23 265.01 69.23 196.58 0 196.58"/>
      <polygon class="cls-1" points="69.23 196.58 69.23 196.58 69.23 196.58 69.23 265.01 69.23 310.62 69.23 196.58 69.23 196.58"/>
      <polygon class="cls-1" points="69.23 196.58 69.23 265.01 69.23 196.58 69.23 196.58"/>
    </g>
  </g>
</svg>